<?xml version="1.0" encoding="UTF-8"?>
<svg width="500px" height="71.333px" enable-background="new 0 215.833 500 71.333" version="1.1" viewBox="0 215.83 500 71.333" xml:space="preserve" xmlns="http://www.w3.org/2000/svg" xmlns:v="https://svgstorm.com">

	<path d="m0 282.87h58.217c-2.683-0.722-4.838-1.58-6.663-2.543-1.822-0.964-4.459-2.639-5.423-4.908-0.966-2.273-2.231-3.064-2.379-6.498-0.15-3.436-0.014-8.391-0.02-12.514-5e-3 -4.122-0.089-9.375 0-13.648s-0.234-9.719 0-13.928-1.858-9.992 3.064-9.471 8.95-0.159 13.649-0.279c1.142 2.624 0.42 6.059 0.557 9.471 0.136 3.412-0.056 7.359 0 10.863s-0.014 7.345 0 10.863c0.017 3.519 0.017 7.401 0 10.864-0.017 3.462 0.259 6.438 0.278 9.471 0.769 0.805 1.477 0.223 2.229 0.278 0.504-2.783 0.404-5.234 0.557-8.636 0.153-3.4-0.095-7.618 0-11.142s-0.098-7.312 0-10.864c0.098-3.551-0.165-7.638 0-11.142s-0.607-7.295 0.557-10.028c2.666 0.872 6.808-0.211 9.471 0.279s7.323-1.599 7.521 1.671c0.195 3.273-0.098 6.763 0 10.028 0.097 3.265-0.059 6.513 0 9.749 0.059 3.237-0.062 6.855 0 10.028 0.061 3.172-0.109 6.738 0 9.749 0.108 3.011-0.273 6.126-0.374 8.546-0.097 2.421-0.774 3.287-1.496 4.908s-1.56 2.871-3.214 4.582c-1.655 1.713-2.783 1.842-4.457 2.629-1.671 0.792-2.766 1.132-4.944 1.619h88.022c-5.329-1.459-10.376-3.582-12.644-9.401-2.27-5.821-2.529-17.331-2.12-25.417s-0.501-16.71 2.543-21.705c3.044-4.994 7.791-8.12 13.892-8.1-0.117-0.914-1.518-0.128-1.393-1.114h-155.43v65.74m33.147-33.426c4.357 2.243 6.357 4.27 6.346 10.368s0.593 15.808-0.496 21.944c-4.93-5e-3 -10.674-5e-3 -15.599 0-0.641-3.958-0.134-9.462-0.279-13.928-0.145-4.465 0.421-9.501-0.835-13.092-0.727 0.153-1.49-0.354-2.507-0.558 5e-3 9.063-8e-3 18.438 0 27.299-5.468 0.465-12.109 0.457-17.549 0v-61.839c5.68-1.523 15.847-0.095 21.51-0.061 5.666 0.033 9.755 0.964 12.774 4.774 3.022 3.808 2.771 8.172 3.042 13.95s-1.59 9.396-6.407 11.143m74.374-30.362c1.371 3.58 1.484 7.435 2.134 11.332 0.649 3.897 0.944 7.231 1.487 11.231 1.588-7.797 1.61-15.192 3.343-22.563 6.983 0.371 15.462-0.735 22.005 0.557-0.187 20.449 0.373 41.599-0.278 62.117-4.75-0.017-10.298 3e-3 -15.042 0-0.835-9.101 0.278-18.869-0.557-27.854-1.25 9.479-2.095 19.027-3.9 27.854-3.356-0.011-7.51-0.011-10.863 0-1.964-9.806-2.44-18.265-4.457-28.134-0.184 9.354 0.371 18.905-0.278 28.134-4.827-0.187-10.602 0.359-15.32-0.278v-61.839c3.011-0.696 7.017-0.072 10.585-0.278s7.664 0.384 11.141-0.279z" fill="none"/>


	<path d="m155.15 282.87h8.635c5.365-1.201 10.847-3.248 13.315-9.262s2.083-16.242 2.005-24.722c-0.078-8.479 0.491-17.415-2.543-22.541-3.033-5.123-8.131-8.1-14.448-8.378 0.083-0.349 0.51-0.477 0.557-0.836h-7.243c-0.125 0.986 1.276 0.201 1.393 1.114-6.101-0.02-10.847 3.106-13.892 8.1-3.044 4.995-2.134 13.619-2.543 21.705-0.41 8.086-0.15 19.596 2.12 25.417 2.268 5.821 7.316 7.944 12.644 9.403m3.064-12.535c-0.042-6.187-0.162-13.91 0-20.612s-0.719-14.248 0.557-19.777c3.693 0.05 2.507 4.17 2.786 7.799 0.278 3.629-0.101 9.276 0 13.092 0.1 3.816 0.014 9.451 0 13.092-0.014 3.64 0.281 8.379-3.343 6.406z" fill="none"/>


	<path d="m163.79 282.87h145.96c-2.683-0.722-4.838-1.58-6.663-2.543-1.821-0.964-4.459-2.639-5.423-4.908-0.967-2.273-2.231-3.064-2.379-6.498-0.15-3.436-0.015-8.391-0.02-12.514-5e-3 -4.122-0.089-9.375 0-13.648s-0.233-9.719 0-13.928-1.858-9.992 3.064-9.471 8.949-0.159 13.648-0.279c1.143 2.624 0.421 6.059 0.558 9.471 0.136 3.412-0.056 7.359 0 10.863s-0.015 7.345 0 10.863c0.014 3.519 0.017 7.401 0 10.864-0.018 3.462 0.259 6.438 0.278 9.471 0.769 0.805 1.477 0.223 2.229 0.278 0.504-2.783 0.403-5.234 0.557-8.636 0.153-3.4-0.095-7.618 0-11.142s-0.098-7.312 0-10.864c0.098-3.551-0.164-7.638 0-11.142 0.165-3.504-0.607-7.295 0.558-10.028 2.665 0.872 6.808-0.211 9.471 0.279s7.323-1.599 7.521 1.671c0.195 3.273-0.098 6.763 0 10.028s-0.059 6.513 0 9.749c0.059 3.237-0.062 6.855 0 10.028 0.062 3.172-0.108 6.738 0 9.749s-0.272 6.126-0.373 8.546c-0.098 2.421-0.774 3.287-1.496 4.908s-1.56 2.871-3.214 4.582c-1.655 1.713-2.783 1.842-4.457 2.629-1.672 0.792-2.764 1.132-4.944 1.619h68.802c-2.682-0.722-4.838-1.58-6.663-2.543-1.821-0.964-4.459-2.639-5.423-4.908-0.967-2.273-2.231-3.064-2.379-6.498-0.15-3.436-0.014-8.391-0.02-12.514-6e-3 -4.122-0.089-9.375 0-13.648s-0.234-9.719 0-13.928-1.857-9.992 3.064-9.471 8.949-0.159 13.648-0.279c1.143 2.624 0.421 6.059 0.558 9.471 0.136 3.412-0.056 7.359 0 10.863s-0.015 7.345 0 10.863c0.017 3.519 0.017 7.401 0 10.864-0.017 3.462 0.259 6.438 0.278 9.471 0.769 0.805 1.477 0.223 2.229 0.278 0.504-2.783 0.403-5.234 0.557-8.636 0.153-3.4-0.095-7.618 0-11.142s-0.098-7.312 0-10.864c0.098-3.551-0.164-7.638 0-11.142 0.165-3.504-0.607-7.295 0.558-10.028 2.665 0.872 6.808-0.211 9.471 0.279s7.323-1.599 7.521 1.671c0.195 3.273-0.098 6.763 0 10.028s-0.059 6.512 0 9.749-0.061 6.855 0 10.028c0.062 3.172-0.108 6.738 0 9.749 0.109 3.011-0.272 6.126-0.373 8.546-0.098 2.421-0.777 3.287-1.496 4.908-0.721 1.621-1.56 2.871-3.214 4.582-1.655 1.713-2.783 1.842-4.457 2.629-1.672 0.792-2.764 1.132-4.944 1.619h74.373c-5.462-1.785-10.818-3.471-12.866-9.818-2.047-6.349-2.415-19.176-1.896-27.508 0.518-8.331-0.591-15.944 3.426-20.808 4.014-4.866 9.209-7.098 16.351-7.047 7.143 0.05 12.315 2.774 15.914 7.777 3.599 5.002 2.833 13.462 3.027 22.028 0.195 8.565 0.379 19.337-1.832 25.563-2.209 6.226-7.819 8.507-13.209 9.813h20.331v-65.738h-337.33c-0.047 0.359-0.474 0.487-0.557 0.836 6.317 0.278 11.415 3.256 14.448 8.378 3.034 5.125 2.465 14.062 2.543 22.541s0.462 18.708-2.005 24.722-7.95 8.066-13.315 9.267m88.858-64.346c0.609 4.555 0.176 9.903 0.278 15.042s-0.075 10.66 0 15.877-0.098 10.629 0 15.877-0.304 10.75 0.278 15.877c-3.629 0.881-8.783-0.306-12.813 0.558-0.607-3.735-0.187-8.209-0.279-12.534-0.092-4.326 0.047-8.951 0-13.371-0.047-4.421 0.036-9.198 0-13.649-11.554 13.284-23.337 26.209-34.819 39.554-4.668-0.451-9.825-0.471-14.485 0-0.523-0.481-0.306-0.847-0.557-1.393 14.346-15.961 28.761-32.29 43.176-48.747-14.273 0.187-28.747-0.371-42.897 0.278-0.88-3.626 0.306-8.783-0.557-12.813 4.554-0.61 9.9-0.175 15.042-0.278s10.66 0.075 15.877 0 10.629 0.095 15.877 0c5.25-0.093 10.751 0.305 15.879-0.278m40.668 13.928c-2.922 1.326-7.507 0.173-11.142 0.557v10.028h9.749c0.454 4.217 0.454 8.872 0 13.092h-9.749c5e-3 8.409-9e-3 17.14 0 25.349-5.394 0.651-11.791 0.078-17.271 0.278-0.652-20.331-0.089-41.708-0.278-62.117 2.776-0.515 6.713-0.323 10.028-0.278 3.314 0.044 7.621-0.217 10.863 0s7.827-1.526 7.521 2.229c-0.305 3.754 1e-3 7.269 0.279 10.862m77.716-12.813c-8e-3 4.098-8e-3 9 0 13.092-3.017 0.641-6.337 0.1-9.471 0.278-0.184 16.192 0.368 32.838-0.278 48.747-5.398 0-11.591-0.015-16.991 0-3e-3 -16.017 3e-3 -32.538 0-48.747-2.95 0.178-6.09-0.359-8.914 0.279-0.839-1.674-0.836-5.234-0.557-7.521 0.278-2.287-1.371-6.518 1.4-6.413 2.77 0.106 6.048-0.053 8.905 6e-3 2.861 0.059 6.039-0.062 8.914 0 2.875 0.061 6.089-0.103 8.914 0s5.825-0.356 8.078 0.279m74.931 29.805c4.356 2.243 6.356 4.27 6.346 10.368-0.012 6.098 0.596 15.808-0.496 21.944-4.931-5e-3 -10.674-5e-3 -15.599 0-0.641-3.958-0.134-9.462-0.278-13.928-0.146-4.465 0.42-9.501-0.836-13.092-0.728 0.153-1.49-0.354-2.507-0.558 5e-3 9.063-9e-3 18.438 0 27.299-5.394 0.651-11.791 0.078-17.271 0.278-0.501-6.618-0.284-13.688-0.278-20.612 5e-3 -6.926-0.114-14.538 0-21.449s-0.543-14.376 0.557-20.613c5.137 0.101 12.633-0.147 17.618 0.056 4.983 0.2 8.878 0.571 11.992 2.092 3.117 1.523 5.438 4.29 6.242 7.407 0.805 3.114 1.089 9.37 0.579 13.072-0.511 3.703-2.063 6.836-6.069 7.736z" fill="none"/>


	<path d="m470.75 282.87h8.914c5.39-1.307 11-3.588 13.209-9.813 2.211-6.226 2.027-16.997 1.832-25.563-0.194-8.565 0.571-17.025-3.027-22.028-3.599-5.003-8.771-7.727-15.914-7.777-7.142-0.05-12.337 2.181-16.351 7.047-4.017 4.863-2.908 12.477-3.426 20.808-0.519 8.332-0.15 21.159 1.896 27.508 2.049 6.347 7.405 8.033 12.867 9.818m3.064-12.535c-0.042-6.187-0.162-13.91 0-20.612 0.161-6.702-0.719-14.245 0.557-19.777 3.693 0.05 2.507 4.17 2.786 7.799 0.278 3.629-0.101 9.276 0 13.092 0.1 3.816 0.014 9.451 0 13.092-0.014 3.64 0.281 8.379-3.343 6.406z" fill="none"/>


	<path d="m252.65 218.52c-5.128 0.583-10.63 0.184-15.878 0.279s-10.66-0.075-15.877 0-10.735-0.103-15.877 0-10.488-0.332-15.042 0.278c0.863 4.031-0.323 9.187 0.557 12.813 14.15-0.649 28.624-0.092 42.897-0.278-14.415 16.457-28.83 32.786-43.176 48.747 0.251 0.546 0.034 0.911 0.557 1.393 4.66-0.471 9.816-0.451 14.485 0 11.482-13.345 23.265-26.271 34.819-39.554 0.036 4.451-0.047 9.228 0 13.649 0.047 4.42-0.092 9.045 0 13.371 0.092 4.325-0.329 8.799 0.279 12.534 4.03-0.863 9.184 0.323 12.813-0.558-0.582-5.127-0.181-10.629-0.278-15.877s0.075-10.66 0-15.877 0.103-10.738 0-15.877 0.331-10.488-0.279-15.043z" fill="none"/>


	<path d="m33.147 249.44c4.816-1.747 6.677-5.365 6.407-11.142s-0.02-10.142-3.042-13.95c-3.02-3.811-7.109-4.741-12.774-4.774-5.663-0.034-15.83-1.462-21.51 0.061v61.839c5.44 0.457 12.081 0.465 17.549 0-8e-3 -8.861 5e-3 -18.236 0-27.299 1.017 0.204 1.78 0.711 2.507 0.558 1.256 3.591 0.691 8.627 0.835 13.092 0.145 4.466-0.362 9.97 0.279 13.928 4.925-5e-3 10.668-5e-3 15.599 0 1.089-6.137 0.485-15.847 0.496-21.944s-1.989-8.126-6.346-10.369m-13.37-6.128v-11.978c3.551-0.209 3.097 2.847 3.064 5.85-0.033 3.002 0.713 6.103-3.064 6.128z" fill="none"/>


	<path d="m58.217 282.87h8.914c2.178-0.487 3.273-0.827 4.944-1.619 1.674-0.787 2.802-0.916 4.457-2.629 1.654-1.711 2.493-2.961 3.214-4.582s1.398-2.487 1.496-4.908c0.101-2.42 0.482-5.535 0.374-8.546-0.109-3.011 0.061-6.577 0-9.749-0.062-3.173 0.059-6.792 0-10.028s0.097-6.484 0-9.749c-0.098-3.265 0.195-6.755 0-10.028-0.198-3.271-4.858-1.181-7.521-1.671s-6.805 0.593-9.471-0.279c-1.165 2.733-0.393 6.524-0.557 10.028-0.165 3.504 0.098 7.591 0 11.142-0.098 3.552 0.095 7.34 0 10.864-0.095 3.523 0.153 7.741 0 11.142s-0.053 5.853-0.557 8.636c-0.752-0.056-1.459 0.526-2.229-0.278-0.02-3.033-0.295-6.009-0.278-9.471 0.017-3.463 0.017-7.346 0-10.864-0.014-3.518 0.056-7.359 0-10.863s0.136-7.451 0-10.863c-0.137-3.413 0.585-6.847-0.557-9.471-4.699 0.12-8.727 0.8-13.649 0.279s-2.83 5.262-3.064 9.471 0.089 9.655 0 13.928-5e-3 9.526 0 13.648c6e-3 4.123-0.131 9.078 0.02 12.514 0.148 3.434 1.413 4.225 2.379 6.498 0.964 2.27 3.602 3.944 5.423 4.908 1.824 0.96 3.98 1.818 6.662 2.54z" fill="none"/>


	<path d="m107.52 219.08c-3.477 0.663-7.574 0.073-11.142 0.279s-7.574-0.418-10.585 0.278v61.839c4.719 0.638 10.493 0.092 15.32 0.278 0.649-9.229 0.095-18.78 0.278-28.134 2.017 9.869 2.493 18.328 4.457 28.134 3.354-0.011 7.507-0.011 10.863 0 1.805-8.827 2.649-18.376 3.9-27.854 0.835 8.985-0.278 18.754 0.557 27.854 4.744 3e-3 10.292-0.017 15.042 0 0.651-20.519 0.092-41.668 0.278-62.117-6.543-1.292-15.022-0.187-22.005-0.557-1.733 7.371-1.755 14.766-3.343 22.563-0.543-4-0.838-7.334-1.487-11.231-0.649-3.898-0.762-7.753-2.133-11.332z" fill="none"/>


	<path d="m293.31 232.45c-0.278-3.593-0.584-7.108-0.278-10.863 0.307-3.755-4.278-2.011-7.521-2.229s-7.549 0.044-10.863 0c-3.315-0.044-7.252-0.237-10.028 0.278 0.189 20.41-0.374 41.786 0.278 62.117 5.479-0.2 11.877 0.373 17.271-0.278-9e-3 -8.209 5e-3 -16.939 0-25.349h9.749c0.454-4.22 0.454-8.875 0-13.092h-9.749v-10.028c3.635-0.383 8.22 0.77 11.141-0.556z" fill="none"/>


	<path d="m309.75 282.87h8.914c2.181-0.487 3.272-0.827 4.944-1.619 1.674-0.787 2.802-0.916 4.457-2.629 1.654-1.711 2.492-2.961 3.214-4.582s1.398-2.487 1.496-4.908c0.101-2.42 0.481-5.535 0.373-8.546s0.062-6.577 0-9.749c-0.062-3.173 0.059-6.792 0-10.028s0.098-6.484 0-9.749 0.195-6.755 0-10.028c-0.197-3.271-4.857-1.181-7.521-1.671s-6.806 0.593-9.471-0.279c-1.165 2.733-0.393 6.524-0.558 10.028-0.164 3.504 0.098 7.591 0 11.142-0.098 3.552 0.095 7.34 0 10.864-0.095 3.523 0.153 7.741 0 11.142s-0.053 5.853-0.557 8.636c-0.752-0.056-1.46 0.526-2.229-0.278-0.02-3.033-0.296-6.009-0.278-9.471 0.017-3.463 0.014-7.346 0-10.864-0.015-3.518 0.056-7.359 0-10.863s0.136-7.451 0-10.863c-0.137-3.413 0.585-6.847-0.558-9.471-4.699 0.12-8.727 0.8-13.648 0.279-4.923-0.521-2.831 5.262-3.064 9.471s0.089 9.655 0 13.928-5e-3 9.526 0 13.648c5e-3 4.123-0.131 9.078 0.02 12.514 0.147 3.434 1.412 4.225 2.379 6.498 0.964 2.27 3.602 3.944 5.423 4.908 1.826 0.96 3.981 1.818 6.664 2.54z" fill="none"/>


	<path d="m371.03 219.64c-2.253-0.635-5.253-0.175-8.077-0.278-2.825-0.103-6.039 0.061-8.914 0-2.875-0.062-6.053 0.059-8.914 0-2.857-0.059-6.136 0.1-8.905-6e-3 -2.771-0.105-1.122 4.125-1.4 6.413-0.279 2.287-0.282 5.847 0.557 7.521 2.824-0.638 5.964-0.101 8.914-0.279 3e-3 16.209-3e-3 32.73 0 48.747 5.4-0.015 11.593 0 16.991 0 0.646-15.908 0.095-32.554 0.278-48.747 3.134-0.178 6.454 0.362 9.471-0.278-9e-3 -4.093-9e-3 -8.996-1e-3 -13.093z" fill="none"/>


	<path d="m387.46 282.87h8.914c2.181-0.487 3.272-0.827 4.944-1.619 1.674-0.787 2.802-0.916 4.457-2.629 1.654-1.711 2.493-2.961 3.214-4.582 0.719-1.621 1.398-2.487 1.496-4.908 0.101-2.42 0.482-5.535 0.373-8.546-0.108-3.011 0.062-6.577 0-9.749-0.061-3.173 0.059-6.792 0-10.028s0.098-6.484 0-9.749 0.195-6.755 0-10.028c-0.197-3.271-4.857-1.181-7.521-1.671s-6.806 0.593-9.471-0.279c-1.165 2.733-0.393 6.524-0.558 10.028-0.164 3.504 0.098 7.591 0 11.142-0.098 3.552 0.095 7.34 0 10.864-0.095 3.523 0.153 7.741 0 11.142s-0.053 5.853-0.557 8.636c-0.752-0.056-1.46 0.526-2.229-0.278-0.02-3.033-0.295-6.009-0.278-9.471 0.017-3.463 0.017-7.346 0-10.864-0.015-3.518 0.056-7.359 0-10.863s0.136-7.451 0-10.863c-0.137-3.413 0.585-6.847-0.558-9.471-4.699 0.12-8.727 0.8-13.648 0.279s-2.83 5.262-3.064 9.471 0.089 9.655 0 13.928-6e-3 9.526 0 13.648c6e-3 4.123-0.131 9.078 0.02 12.514 0.147 3.434 1.412 4.225 2.379 6.498 0.964 2.27 3.602 3.944 5.423 4.908 1.826 0.96 3.982 1.818 6.664 2.54z" fill="none"/>


	<path d="m445.96 249.44c4.006-0.9 5.557-4.033 6.069-7.735 0.51-3.702 0.226-9.958-0.579-13.072-0.805-3.117-3.125-5.883-6.242-7.407-3.114-1.521-7.009-1.892-11.992-2.092-4.985-0.204-12.481 0.044-17.618-0.056-1.1 6.237-0.442 13.702-0.557 20.613-0.114 6.911 5e-3 14.523 0 21.449-6e-3 6.924-0.223 13.994 0.278 20.612 5.479-0.2 11.877 0.373 17.271-0.278-9e-3 -8.861 5e-3 -18.236 0-27.299 1.017 0.204 1.779 0.711 2.507 0.558 1.256 3.591 0.69 8.627 0.836 13.092 0.145 4.466-0.362 9.97 0.278 13.928 4.925-5e-3 10.668-5e-3 15.599 0 1.092-6.137 0.484-15.847 0.496-21.944 0.01-6.099-1.99-8.126-6.346-10.369m-13.37-6.128v-11.978c3.551-0.209 3.097 2.847 3.063 5.85s0.713 6.103-3.063 6.128z" fill="none"/>


	<path d="m158.22 270.33c3.624 1.973 3.329-2.766 3.343-6.406 0.014-3.641 0.1-9.275 0-13.092-0.101-3.816 0.278-9.463 0-13.092-0.279-3.629 0.908-7.749-2.786-7.799-1.276 5.529-0.396 13.075-0.557 19.777s-0.042 14.425 0 20.612z" fill="none"/>


	<path d="m473.82 270.33c3.624 1.973 3.328-2.766 3.343-6.406 0.014-3.641 0.1-9.275 0-13.092-0.101-3.816 0.278-9.463 0-13.092-0.279-3.629 0.907-7.749-2.786-7.799-1.275 5.532-0.396 13.075-0.557 19.777-0.162 6.702-0.042 14.425 0 20.612z" fill="none"/>


	<path d="m19.777 243.32c3.777-0.025 3.03-3.125 3.064-6.128 0.033-3.003 0.487-6.059-3.064-5.85v11.978z" fill="none"/>


	<path d="m432.59 243.32c3.776-0.025 3.03-3.125 3.063-6.128s0.487-6.059-3.063-5.85v11.978z" fill="none"/>


	<path d="m0 282.87h58.217c-2.683-0.722-4.838-1.58-6.663-2.543-1.822-0.964-4.459-2.639-5.423-4.908-0.966-2.273-2.231-3.064-2.379-6.498-0.15-3.436-0.014-8.391-0.02-12.514-5e-3 -4.122-0.089-9.375 0-13.648s-0.234-9.719 0-13.928-1.858-9.992 3.064-9.471 8.95-0.159 13.649-0.279c1.142 2.624 0.42 6.059 0.557 9.471 0.136 3.412-0.056 7.359 0 10.863s-0.014 7.345 0 10.863c0.017 3.519 0.017 7.401 0 10.864-0.017 3.462 0.259 6.438 0.278 9.471 0.769 0.805 1.477 0.223 2.229 0.278 0.504-2.783 0.404-5.234 0.557-8.636 0.153-3.4-0.095-7.618 0-11.142s-0.098-7.312 0-10.864c0.098-3.551-0.165-7.638 0-11.142s-0.607-7.295 0.557-10.028c2.666 0.872 6.808-0.211 9.471 0.279s7.323-1.599 7.521 1.671c0.195 3.273-0.098 6.763 0 10.028 0.097 3.265-0.059 6.513 0 9.749 0.059 3.237-0.062 6.855 0 10.028 0.061 3.172-0.109 6.738 0 9.749 0.108 3.011-0.273 6.126-0.374 8.546-0.097 2.421-0.774 3.287-1.496 4.908s-1.56 2.871-3.214 4.582c-1.655 1.713-2.783 1.842-4.457 2.629-1.671 0.792-2.766 1.132-4.944 1.619h88.022c-5.329-1.459-10.376-3.582-12.644-9.401-2.27-5.821-2.529-17.331-2.12-25.417s-0.501-16.71 2.543-21.705c3.044-4.994 7.791-8.12 13.892-8.1-0.117-0.914-1.518-0.128-1.393-1.114h-155.43v65.74m33.147-33.426c4.357 2.243 6.357 4.27 6.346 10.368s0.593 15.808-0.496 21.944c-4.93-5e-3 -10.674-5e-3 -15.599 0-0.641-3.958-0.134-9.462-0.279-13.928-0.145-4.465 0.421-9.501-0.835-13.092-0.727 0.153-1.49-0.354-2.507-0.558 5e-3 9.063-8e-3 18.438 0 27.299-5.468 0.465-12.109 0.457-17.549 0v-61.839c5.68-1.523 15.847-0.095 21.51-0.061 5.666 0.033 9.755 0.964 12.774 4.774 3.022 3.808 2.771 8.172 3.042 13.95s-1.59 9.396-6.407 11.143m74.374-30.362c1.371 3.58 1.484 7.435 2.134 11.332 0.649 3.897 0.944 7.231 1.487 11.231 1.588-7.797 1.61-15.192 3.343-22.563 6.983 0.371 15.462-0.735 22.005 0.557-0.187 20.449 0.373 41.599-0.278 62.117-4.75-0.017-10.298 3e-3 -15.042 0-0.835-9.101 0.278-18.869-0.557-27.854-1.25 9.479-2.095 19.027-3.9 27.854-3.356-0.011-7.51-0.011-10.863 0-1.964-9.806-2.44-18.265-4.457-28.134-0.184 9.354 0.371 18.905-0.278 28.134-4.827-0.187-10.602 0.359-15.32-0.278v-61.839c3.011-0.696 7.017-0.072 10.585-0.278s7.664 0.384 11.141-0.279z" fill-opacity=".02"/>


	<path d="m155.15 282.87h8.635c5.365-1.201 10.847-3.248 13.315-9.262s2.083-16.242 2.005-24.722c-0.078-8.479 0.491-17.415-2.543-22.541-3.033-5.123-8.131-8.1-14.448-8.378 0.083-0.349 0.51-0.477 0.557-0.836h-7.243c-0.125 0.986 1.276 0.201 1.393 1.114-6.101-0.02-10.847 3.106-13.892 8.1-3.044 4.995-2.134 13.619-2.543 21.705-0.41 8.086-0.15 19.596 2.12 25.417 2.268 5.821 7.316 7.944 12.644 9.403m3.064-12.535c-0.042-6.187-0.162-13.91 0-20.612s-0.719-14.248 0.557-19.777c3.693 0.05 2.507 4.17 2.786 7.799 0.278 3.629-0.101 9.276 0 13.092 0.1 3.816 0.014 9.451 0 13.092-0.014 3.64 0.281 8.379-3.343 6.406z" fill-opacity=".99"/>


	<path d="m163.79 282.87h145.96c-2.683-0.722-4.838-1.58-6.663-2.543-1.821-0.964-4.459-2.639-5.423-4.908-0.967-2.273-2.231-3.064-2.379-6.498-0.15-3.436-0.015-8.391-0.02-12.514-5e-3 -4.122-0.089-9.375 0-13.648s-0.233-9.719 0-13.928-1.858-9.992 3.064-9.471 8.949-0.159 13.648-0.279c1.143 2.624 0.421 6.059 0.558 9.471 0.136 3.412-0.056 7.359 0 10.863s-0.015 7.345 0 10.863c0.014 3.519 0.017 7.401 0 10.864-0.018 3.462 0.259 6.438 0.278 9.471 0.769 0.805 1.477 0.223 2.229 0.278 0.504-2.783 0.403-5.234 0.557-8.636 0.153-3.4-0.095-7.618 0-11.142s-0.098-7.312 0-10.864c0.098-3.551-0.164-7.638 0-11.142 0.165-3.504-0.607-7.295 0.558-10.028 2.665 0.872 6.808-0.211 9.471 0.279s7.323-1.599 7.521 1.671c0.195 3.273-0.098 6.763 0 10.028s-0.059 6.513 0 9.749c0.059 3.237-0.062 6.855 0 10.028 0.062 3.172-0.108 6.738 0 9.749s-0.272 6.126-0.373 8.546c-0.098 2.421-0.774 3.287-1.496 4.908s-1.56 2.871-3.214 4.582c-1.655 1.713-2.783 1.842-4.457 2.629-1.672 0.792-2.764 1.132-4.944 1.619h68.802c-2.682-0.722-4.838-1.58-6.663-2.543-1.821-0.964-4.459-2.639-5.423-4.908-0.967-2.273-2.231-3.064-2.379-6.498-0.15-3.436-0.014-8.391-0.02-12.514-6e-3 -4.122-0.089-9.375 0-13.648s-0.234-9.719 0-13.928-1.857-9.992 3.064-9.471 8.949-0.159 13.648-0.279c1.143 2.624 0.421 6.059 0.558 9.471 0.136 3.412-0.056 7.359 0 10.863s-0.015 7.345 0 10.863c0.017 3.519 0.017 7.401 0 10.864-0.017 3.462 0.259 6.438 0.278 9.471 0.769 0.805 1.477 0.223 2.229 0.278 0.504-2.783 0.403-5.234 0.557-8.636 0.153-3.4-0.095-7.618 0-11.142s-0.098-7.312 0-10.864c0.098-3.551-0.164-7.638 0-11.142 0.165-3.504-0.607-7.295 0.558-10.028 2.665 0.872 6.808-0.211 9.471 0.279s7.323-1.599 7.521 1.671c0.195 3.273-0.098 6.763 0 10.028s-0.059 6.512 0 9.749-0.061 6.855 0 10.028c0.062 3.172-0.108 6.738 0 9.749 0.109 3.011-0.272 6.126-0.373 8.546-0.098 2.421-0.777 3.287-1.496 4.908-0.721 1.621-1.56 2.871-3.214 4.582-1.655 1.713-2.783 1.842-4.457 2.629-1.672 0.792-2.764 1.132-4.944 1.619h74.373c-5.462-1.785-10.818-3.471-12.866-9.818-2.047-6.349-2.415-19.176-1.896-27.508 0.518-8.331-0.591-15.944 3.426-20.808 4.014-4.866 9.209-7.098 16.351-7.047 7.143 0.05 12.315 2.774 15.914 7.777 3.599 5.002 2.833 13.462 3.027 22.028 0.195 8.565 0.379 19.337-1.832 25.563-2.209 6.226-7.819 8.507-13.209 9.813h20.331v-65.738h-337.33c-0.047 0.359-0.474 0.487-0.557 0.836 6.317 0.278 11.415 3.256 14.448 8.378 3.034 5.125 2.465 14.062 2.543 22.541s0.462 18.708-2.005 24.722-7.95 8.066-13.315 9.267m88.858-64.346c0.609 4.555 0.176 9.903 0.278 15.042s-0.075 10.66 0 15.877-0.098 10.629 0 15.877-0.304 10.75 0.278 15.877c-3.629 0.881-8.783-0.306-12.813 0.558-0.607-3.735-0.187-8.209-0.279-12.534-0.092-4.326 0.047-8.951 0-13.371-0.047-4.421 0.036-9.198 0-13.649-11.554 13.284-23.337 26.209-34.819 39.554-4.668-0.451-9.825-0.471-14.485 0-0.523-0.481-0.306-0.847-0.557-1.393 14.346-15.961 28.761-32.29 43.176-48.747-14.273 0.187-28.747-0.371-42.897 0.278-0.88-3.626 0.306-8.783-0.557-12.813 4.554-0.61 9.9-0.175 15.042-0.278s10.66 0.075 15.877 0 10.629 0.095 15.877 0c5.25-0.093 10.751 0.305 15.879-0.278m40.668 13.928c-2.922 1.326-7.507 0.173-11.142 0.557v10.028h9.749c0.454 4.217 0.454 8.872 0 13.092h-9.749c5e-3 8.409-9e-3 17.14 0 25.349-5.394 0.651-11.791 0.078-17.271 0.278-0.652-20.331-0.089-41.708-0.278-62.117 2.776-0.515 6.713-0.323 10.028-0.278 3.314 0.044 7.621-0.217 10.863 0s7.827-1.526 7.521 2.229c-0.305 3.754 1e-3 7.269 0.279 10.862m77.716-12.813c-8e-3 4.098-8e-3 9 0 13.092-3.017 0.641-6.337 0.1-9.471 0.278-0.184 16.192 0.368 32.838-0.278 48.747-5.398 0-11.591-0.015-16.991 0-3e-3 -16.017 3e-3 -32.538 0-48.747-2.95 0.178-6.09-0.359-8.914 0.279-0.839-1.674-0.836-5.234-0.557-7.521 0.278-2.287-1.371-6.518 1.4-6.413 2.77 0.106 6.048-0.053 8.905 6e-3 2.861 0.059 6.039-0.062 8.914 0 2.875 0.061 6.089-0.103 8.914 0s5.825-0.356 8.078 0.279m74.931 29.805c4.356 2.243 6.356 4.27 6.346 10.368-0.012 6.098 0.596 15.808-0.496 21.944-4.931-5e-3 -10.674-5e-3 -15.599 0-0.641-3.958-0.134-9.462-0.278-13.928-0.146-4.465 0.42-9.501-0.836-13.092-0.728 0.153-1.49-0.354-2.507-0.558 5e-3 9.063-9e-3 18.438 0 27.299-5.394 0.651-11.791 0.078-17.271 0.278-0.501-6.618-0.284-13.688-0.278-20.612 5e-3 -6.926-0.114-14.538 0-21.449s-0.543-14.376 0.557-20.613c5.137 0.101 12.633-0.147 17.618 0.056 4.983 0.2 8.878 0.571 11.992 2.092 3.117 1.523 5.438 4.29 6.242 7.407 0.805 3.114 1.089 9.37 0.579 13.072-0.511 3.703-2.063 6.836-6.069 7.736z" fill-opacity=".02"/>


	<path d="m470.75 282.87h8.914c5.39-1.307 11-3.588 13.209-9.813 2.211-6.226 2.027-16.997 1.832-25.563-0.194-8.565 0.571-17.025-3.027-22.028-3.599-5.003-8.771-7.727-15.914-7.777-7.142-0.05-12.337 2.181-16.351 7.047-4.017 4.863-2.908 12.477-3.426 20.808-0.519 8.332-0.15 21.159 1.896 27.508 2.049 6.347 7.405 8.033 12.867 9.818m3.064-12.535c-0.042-6.187-0.162-13.91 0-20.612 0.161-6.702-0.719-14.245 0.557-19.777 3.693 0.05 2.507 4.17 2.786 7.799 0.278 3.629-0.101 9.276 0 13.092 0.1 3.816 0.014 9.451 0 13.092-0.014 3.64 0.281 8.379-3.343 6.406z" fill-opacity=".99"/>


	<path d="m252.65 218.52c-5.128 0.583-10.63 0.184-15.878 0.279s-10.66-0.075-15.877 0-10.735-0.103-15.877 0-10.488-0.332-15.042 0.278c0.863 4.031-0.323 9.187 0.557 12.813 14.15-0.649 28.624-0.092 42.897-0.278-14.415 16.457-28.83 32.786-43.176 48.747 0.251 0.546 0.034 0.911 0.557 1.393 4.66-0.471 9.816-0.451 14.485 0 11.482-13.345 23.265-26.271 34.819-39.554 0.036 4.451-0.047 9.228 0 13.649 0.047 4.42-0.092 9.045 0 13.371 0.092 4.325-0.329 8.799 0.279 12.534 4.03-0.863 9.184 0.323 12.813-0.558-0.582-5.127-0.181-10.629-0.278-15.877s0.075-10.66 0-15.877 0.103-10.738 0-15.877 0.331-10.488-0.279-15.043z"/>


	<path d="m33.147 249.44c4.816-1.747 6.677-5.365 6.407-11.142s-0.02-10.142-3.042-13.95c-3.02-3.811-7.109-4.741-12.774-4.774-5.663-0.034-15.83-1.462-21.51 0.061v61.839c5.44 0.457 12.081 0.465 17.549 0-8e-3 -8.861 5e-3 -18.236 0-27.299 1.017 0.204 1.78 0.711 2.507 0.558 1.256 3.591 0.691 8.627 0.835 13.092 0.145 4.466-0.362 9.97 0.279 13.928 4.925-5e-3 10.668-5e-3 15.599 0 1.089-6.137 0.485-15.847 0.496-21.944s-1.989-8.126-6.346-10.369m-13.37-6.128v-11.978c3.551-0.209 3.097 2.847 3.064 5.85-0.033 3.002 0.713 6.103-3.064 6.128z" fill-opacity=".99"/>


	<path d="m58.217 282.87h8.914c2.178-0.487 3.273-0.827 4.944-1.619 1.674-0.787 2.802-0.916 4.457-2.629 1.654-1.711 2.493-2.961 3.214-4.582s1.398-2.487 1.496-4.908c0.101-2.42 0.482-5.535 0.374-8.546-0.109-3.011 0.061-6.577 0-9.749-0.062-3.173 0.059-6.792 0-10.028s0.097-6.484 0-9.749c-0.098-3.265 0.195-6.755 0-10.028-0.198-3.271-4.858-1.181-7.521-1.671s-6.805 0.593-9.471-0.279c-1.165 2.733-0.393 6.524-0.557 10.028-0.165 3.504 0.098 7.591 0 11.142-0.098 3.552 0.095 7.34 0 10.864-0.095 3.523 0.153 7.741 0 11.142s-0.053 5.853-0.557 8.636c-0.752-0.056-1.459 0.526-2.229-0.278-0.02-3.033-0.295-6.009-0.278-9.471 0.017-3.463 0.017-7.346 0-10.864-0.014-3.518 0.056-7.359 0-10.863s0.136-7.451 0-10.863c-0.137-3.413 0.585-6.847-0.557-9.471-4.699 0.12-8.727 0.8-13.649 0.279s-2.83 5.262-3.064 9.471 0.089 9.655 0 13.928-5e-3 9.526 0 13.648c6e-3 4.123-0.131 9.078 0.02 12.514 0.148 3.434 1.413 4.225 2.379 6.498 0.964 2.27 3.602 3.944 5.423 4.908 1.824 0.96 3.98 1.818 6.662 2.54z"/>


	<path d="m107.52 219.08c-3.477 0.663-7.574 0.073-11.142 0.279s-7.574-0.418-10.585 0.278v61.839c4.719 0.638 10.493 0.092 15.32 0.278 0.649-9.229 0.095-18.78 0.278-28.134 2.017 9.869 2.493 18.328 4.457 28.134 3.354-0.011 7.507-0.011 10.863 0 1.805-8.827 2.649-18.376 3.9-27.854 0.835 8.985-0.278 18.754 0.557 27.854 4.744 3e-3 10.292-0.017 15.042 0 0.651-20.519 0.092-41.668 0.278-62.117-6.543-1.292-15.022-0.187-22.005-0.557-1.733 7.371-1.755 14.766-3.343 22.563-0.543-4-0.838-7.334-1.487-11.231-0.649-3.898-0.762-7.753-2.133-11.332z" fill-opacity=".99"/>


	<path d="m293.31 232.45c-0.278-3.593-0.584-7.108-0.278-10.863 0.307-3.755-4.278-2.011-7.521-2.229s-7.549 0.044-10.863 0c-3.315-0.044-7.252-0.237-10.028 0.278 0.189 20.41-0.374 41.786 0.278 62.117 5.479-0.2 11.877 0.373 17.271-0.278-9e-3 -8.209 5e-3 -16.939 0-25.349h9.749c0.454-4.22 0.454-8.875 0-13.092h-9.749v-10.028c3.635-0.383 8.22 0.77 11.141-0.556z"/>


	<path d="m309.75 282.87h8.914c2.181-0.487 3.272-0.827 4.944-1.619 1.674-0.787 2.802-0.916 4.457-2.629 1.654-1.711 2.492-2.961 3.214-4.582s1.398-2.487 1.496-4.908c0.101-2.42 0.481-5.535 0.373-8.546s0.062-6.577 0-9.749c-0.062-3.173 0.059-6.792 0-10.028s0.098-6.484 0-9.749 0.195-6.755 0-10.028c-0.197-3.271-4.857-1.181-7.521-1.671s-6.806 0.593-9.471-0.279c-1.165 2.733-0.393 6.524-0.558 10.028-0.164 3.504 0.098 7.591 0 11.142-0.098 3.552 0.095 7.34 0 10.864-0.095 3.523 0.153 7.741 0 11.142s-0.053 5.853-0.557 8.636c-0.752-0.056-1.46 0.526-2.229-0.278-0.02-3.033-0.296-6.009-0.278-9.471 0.017-3.463 0.014-7.346 0-10.864-0.015-3.518 0.056-7.359 0-10.863s0.136-7.451 0-10.863c-0.137-3.413 0.585-6.847-0.558-9.471-4.699 0.12-8.727 0.8-13.648 0.279-4.923-0.521-2.831 5.262-3.064 9.471s0.089 9.655 0 13.928-5e-3 9.526 0 13.648c5e-3 4.123-0.131 9.078 0.02 12.514 0.147 3.434 1.412 4.225 2.379 6.498 0.964 2.27 3.602 3.944 5.423 4.908 1.826 0.96 3.981 1.818 6.664 2.54z"/>


	<path d="m371.03 219.64c-2.253-0.635-5.253-0.175-8.077-0.278-2.825-0.103-6.039 0.061-8.914 0-2.875-0.062-6.053 0.059-8.914 0-2.857-0.059-6.136 0.1-8.905-6e-3 -2.771-0.105-1.122 4.125-1.4 6.413-0.279 2.287-0.282 5.847 0.557 7.521 2.824-0.638 5.964-0.101 8.914-0.279 3e-3 16.209-3e-3 32.73 0 48.747 5.4-0.015 11.593 0 16.991 0 0.646-15.908 0.095-32.554 0.278-48.747 3.134-0.178 6.454 0.362 9.471-0.278-9e-3 -4.093-9e-3 -8.996-1e-3 -13.093z"/>


	<path d="m387.46 282.87h8.914c2.181-0.487 3.272-0.827 4.944-1.619 1.674-0.787 2.802-0.916 4.457-2.629 1.654-1.711 2.493-2.961 3.214-4.582 0.719-1.621 1.398-2.487 1.496-4.908 0.101-2.42 0.482-5.535 0.373-8.546-0.108-3.011 0.062-6.577 0-9.749-0.061-3.173 0.059-6.792 0-10.028s0.098-6.484 0-9.749 0.195-6.755 0-10.028c-0.197-3.271-4.857-1.181-7.521-1.671s-6.806 0.593-9.471-0.279c-1.165 2.733-0.393 6.524-0.558 10.028-0.164 3.504 0.098 7.591 0 11.142-0.098 3.552 0.095 7.34 0 10.864-0.095 3.523 0.153 7.741 0 11.142s-0.053 5.853-0.557 8.636c-0.752-0.056-1.46 0.526-2.229-0.278-0.02-3.033-0.295-6.009-0.278-9.471 0.017-3.463 0.017-7.346 0-10.864-0.015-3.518 0.056-7.359 0-10.863s0.136-7.451 0-10.863c-0.137-3.413 0.585-6.847-0.558-9.471-4.699 0.12-8.727 0.8-13.648 0.279s-2.83 5.262-3.064 9.471 0.089 9.655 0 13.928-6e-3 9.526 0 13.648c6e-3 4.123-0.131 9.078 0.02 12.514 0.147 3.434 1.412 4.225 2.379 6.498 0.964 2.27 3.602 3.944 5.423 4.908 1.826 0.96 3.982 1.818 6.664 2.54z"/>


	<path d="m445.96 249.44c4.006-0.9 5.557-4.033 6.069-7.735 0.51-3.702 0.226-9.958-0.579-13.072-0.805-3.117-3.125-5.883-6.242-7.407-3.114-1.521-7.009-1.892-11.992-2.092-4.985-0.204-12.481 0.044-17.618-0.056-1.1 6.237-0.442 13.702-0.557 20.613-0.114 6.911 5e-3 14.523 0 21.449-6e-3 6.924-0.223 13.994 0.278 20.612 5.479-0.2 11.877 0.373 17.271-0.278-9e-3 -8.861 5e-3 -18.236 0-27.299 1.017 0.204 1.779 0.711 2.507 0.558 1.256 3.591 0.69 8.627 0.836 13.092 0.145 4.466-0.362 9.97 0.278 13.928 4.925-5e-3 10.668-5e-3 15.599 0 1.092-6.137 0.484-15.847 0.496-21.944 0.01-6.099-1.99-8.126-6.346-10.369m-13.37-6.128v-11.978c3.551-0.209 3.097 2.847 3.063 5.85s0.713 6.103-3.063 6.128z" fill-opacity=".99"/>


	<path d="m158.22 270.33c3.624 1.973 3.329-2.766 3.343-6.406 0.014-3.641 0.1-9.275 0-13.092-0.101-3.816 0.278-9.463 0-13.092-0.279-3.629 0.908-7.749-2.786-7.799-1.276 5.529-0.396 13.075-0.557 19.777s-0.042 14.425 0 20.612z" fill-opacity=".05"/>


	<path d="m473.82 270.33c3.624 1.973 3.328-2.766 3.343-6.406 0.014-3.641 0.1-9.275 0-13.092-0.101-3.816 0.278-9.463 0-13.092-0.279-3.629 0.907-7.749-2.786-7.799-1.275 5.532-0.396 13.075-0.557 19.777-0.162 6.702-0.042 14.425 0 20.612z" fill-opacity=".05"/>


	<path d="m19.777 243.32c3.777-0.025 3.03-3.125 3.064-6.128 0.033-3.003 0.487-6.059-3.064-5.85v11.978z" fill-opacity=".04"/>


	<path d="m432.59 243.32c3.776-0.025 3.03-3.125 3.063-6.128s0.487-6.059-3.063-5.85v11.978z" fill-opacity=".04"/>

<rect x="152.5" y="210.12" width="14.75" height="7.875" fill="#fff"/>
</svg>