<svg xmlns="http://www.w3.org/2000/svg" xmlns:v="https://svgstorm.com"
viewBox = "0 0 1795 236"
width="1795"
height="236">
<g fill="#000000" fill-opacity="0.02" stroke="None">
<path d="
M 0.00 236.00 
L 1795.00 236.00
L 1795.00 0.00
L 1729.00 0.00
C 1746.64 6.18 1766.70 16.29 1771.71 37.30 C 1776.72 58.31 1776.77 99.59 1776.00 129.00 C 1775.23 158.41 1778.17 186.49 1764.29 205.30 C 1750.40 224.11 1733.96 230.37 1710.00 231.00 C 1686.04 231.64 1663.05 225.71 1649.30 207.70 C 1635.56 189.68 1637.46 159.49 1637.00 130.00 C 1636.54 100.51 1636.71 59.60 1641.21 37.77 C 1645.71 15.94 1666.27 6.80 1684.00 0.00
L 599.00 0.00
C 607.10 5.64 620.88 7.56 629.08 19.92 C 637.29 32.28 638.68 34.85 640.93 51.08 C 643.19 67.31 643.00 94.96 643.00 114.00 C 643.00 133.04 643.11 160.61 641.22 177.22 C 639.33 193.84 636.73 198.00 627.90 209.90 C 619.07 221.81 607.51 225.48 596.75 228.20 C 586.00 230.91 563.36 233.65 551.75 229.80 C 540.14 225.95 529.09 222.64 519.90 211.10 C 510.71 199.56 507.63 194.89 505.68 177.32 C 503.72 159.75 503.33 131.29 504.00 112.00 C 504.67 92.71 504.12 67.72 505.93 50.93 C 507.74 34.13 510.27 31.41 519.24 19.23 C 528.20 7.05 539.24 4.51 551.00 0.00
L 0.00 0.00
L 0.00 236.00
M 119.00 111.00 
C 134.64 119.05 141.82 126.33 141.78 148.22 C 141.74 170.11 143.91 204.97 140.00 227.00
C 122.30 226.98 101.68 226.98 84.00 227.00
C 81.70 212.79 83.52 193.03 83.00 177.00 C 82.48 160.97 84.51 142.89 80.00 130.00
C 77.39 130.55 74.65 128.73 71.00 128.00
C 71.02 160.53 70.97 194.19 71.00 226.00
C 51.37 227.67 27.53 227.64 8.00 226.00
C 8.24 201.95 7.70 176.82 8.00 152.00 C 8.30 127.18 7.46 99.70 8.00 75.00 C 8.54 50.30 5.96 24.22 10.00 2.00
C 28.44 2.36 55.35 1.48 73.25 2.20 C 91.14 2.92 105.11 4.25 116.30 9.71 C 127.49 15.18 135.82 25.11 138.71 36.30 C 141.60 47.48 142.63 69.94 140.79 83.23 C 138.95 96.52 133.38 107.77 119.00 111.00
M 217.00 2.00 
C 221.10 11.42 218.51 23.75 219.00 36.00 C 219.49 48.25 218.80 62.42 219.00 75.00 C 219.20 87.58 218.94 101.37 219.00 114.00 C 219.06 126.63 219.06 140.57 219.00 153.00 C 218.94 165.43 219.93 176.11 220.00 187.00
C 222.76 189.89 225.30 187.80 228.00 188.00
C 229.81 178.01 229.45 169.21 230.00 157.00 C 230.55 144.79 229.66 129.65 230.00 117.00 C 230.34 104.35 229.65 90.75 230.00 78.00 C 230.35 65.25 229.41 50.58 230.00 38.00 C 230.59 25.42 227.82 11.81 232.00 2.00
C 243.57 3.70 255.99 3.16 268.00 3.00 C 280.01 2.84 294.81 -0.62 293.00 14.00 C 291.19 28.62 293.89 38.64 293.00 52.00 C 292.11 65.36 293.52 76.41 293.00 89.00 C 292.48 101.59 293.51 115.08 293.00 127.00 C 292.49 138.92 293.84 154.24 293.00 165.00 C 292.16 175.76 292.03 182.39 290.80 190.25 C 289.57 198.11 285.39 200.35 281.76 206.77 C 278.14 213.19 271.43 219.48 265.70 222.71 C 259.96 225.95 255.25 226.99 249.08 229.13 C 242.91 231.27 231.89 230.90 223.00 231.00 C 214.11 231.10 206.28 230.27 198.30 227.69 C 190.33 225.11 189.86 224.25 182.70 220.29 C 175.54 216.32 173.67 214.99 166.70 206.30 C 159.73 197.61 156.02 181.30 157.00 165.00 C 157.98 148.70 156.73 141.42 157.00 127.00 C 157.27 112.58 157.26 102.71 157.00 89.00 C 156.74 75.29 158.01 65.78 157.00 52.00 C 155.99 38.22 159.35 28.66 157.00 14.00 C 154.65 -0.66 167.40 2.95 180.00 3.00 C 192.60 3.05 204.93 3.78 217.00 2.00
M 386.00 2.00 
C 390.92 14.85 391.33 28.69 393.66 42.68 C 395.99 56.67 397.05 68.64 399.00 83.00
C 404.70 55.01 404.78 28.46 411.00 2.00
C 436.07 3.33 466.51 -0.64 490.00 4.00
C 489.33 77.41 491.34 153.34 489.00 227.00
C 471.95 226.94 452.03 227.01 435.00 227.00
C 432.00 194.33 436.00 159.26 433.00 127.00
C 428.51 161.03 425.48 195.31 419.00 227.00
C 406.95 226.96 392.04 226.96 380.00 227.00
C 372.95 191.80 371.24 161.43 364.00 126.00
C 363.34 159.58 365.33 193.87 363.00 227.00
C 345.67 226.33 324.94 228.29 308.00 226.00
C 308.00 152.98 308.00 77.00 308.00 4.00
C 318.81 1.50 333.19 3.74 346.00 3.00 C 358.81 2.26 373.52 4.38 386.00 2.00
M 1053.00 50.00 
C 1042.51 54.76 1026.05 50.62 1013.00 52.00
C 1013.00 64.00 1013.00 76.00 1013.00 88.00
C 1024.67 88.00 1036.33 88.00 1048.00 88.00
C 1049.63 103.14 1049.63 119.85 1048.00 135.00
C 1036.33 135.00 1024.67 135.00 1013.00 135.00
C 1013.02 165.19 1012.97 196.53 1013.00 226.00
C 993.64 228.34 970.67 226.28 951.00 227.00
C 948.66 154.01 950.68 77.27 950.00 4.00
C 959.97 2.15 974.10 2.84 986.00 3.00 C 997.90 3.16 1013.36 2.22 1025.00 3.00 C 1036.64 3.78 1053.10 -2.48 1052.00 11.00 C 1050.90 24.48 1052.00 37.10 1053.00 50.00
M 1120.00 2.00 
C 1124.10 11.42 1121.51 23.75 1122.00 36.00 C 1122.49 48.25 1121.80 62.42 1122.00 75.00 C 1122.20 87.58 1121.94 101.37 1122.00 114.00 C 1122.06 126.63 1122.06 140.57 1122.00 153.00 C 1121.94 165.43 1122.93 176.11 1123.00 187.00
C 1125.76 189.89 1128.30 187.80 1131.00 188.00
C 1132.81 178.01 1132.45 169.21 1133.00 157.00 C 1133.55 144.79 1132.66 129.65 1133.00 117.00 C 1133.34 104.35 1132.65 90.75 1133.00 78.00 C 1133.35 65.25 1132.41 50.58 1133.00 38.00 C 1133.59 25.42 1130.82 11.81 1135.00 2.00
C 1146.57 3.70 1158.99 3.16 1171.00 3.00 C 1183.01 2.84 1197.81 -0.62 1196.00 14.00 C 1194.19 28.62 1196.89 38.64 1196.00 52.00 C 1195.11 65.36 1196.52 76.41 1196.00 89.00 C 1195.48 101.59 1196.51 115.08 1196.00 127.00 C 1195.49 138.92 1196.84 154.24 1196.00 165.00 C 1195.16 175.76 1195.03 182.39 1193.80 190.25 C 1192.57 198.11 1188.39 200.35 1184.76 206.77 C 1181.14 213.19 1174.43 219.48 1168.70 222.71 C 1162.96 225.95 1158.25 226.99 1152.08 229.13 C 1145.91 231.27 1134.89 230.90 1126.00 231.00 C 1117.11 231.10 1109.27 230.27 1101.30 227.69 C 1093.33 225.11 1092.85 224.25 1085.70 220.29 C 1078.54 216.32 1076.67 214.98 1069.70 206.30 C 1062.73 197.61 1059.02 181.30 1060.00 165.00 C 1060.98 148.70 1059.73 141.42 1060.00 127.00 C 1060.27 112.58 1060.26 102.71 1060.00 89.00 C 1059.74 75.29 1061.01 65.78 1060.00 52.00 C 1058.99 38.22 1062.35 28.66 1060.00 14.00 C 1057.65 -0.66 1070.40 2.95 1083.00 3.00 C 1095.60 3.05 1107.93 3.78 1120.00 2.00
M 1332.00 4.00 
C 1331.97 18.71 1331.97 36.31 1332.00 51.00
C 1321.17 53.30 1309.25 51.36 1298.00 52.00
C 1297.34 110.13 1299.32 169.89 1297.00 227.00
C 1277.62 227.00 1255.39 226.95 1236.00 227.00
C 1235.99 169.50 1236.01 110.19 1236.00 52.00
C 1225.41 52.64 1214.14 50.71 1204.00 53.00
C 1200.99 46.99 1201.00 34.21 1202.00 26.00 C 1203.00 17.79 1197.08 2.60 1207.03 2.98 C 1216.97 3.36 1228.74 2.79 1239.00 3.00 C 1249.27 3.21 1260.68 2.78 1271.00 3.00 C 1281.32 3.22 1292.86 2.63 1303.00 3.00 C 1313.14 3.37 1323.91 1.72 1332.00 4.00
M 1399.00 2.00 
C 1403.10 11.42 1400.51 23.75 1401.00 36.00 C 1401.49 48.25 1400.80 62.42 1401.00 75.00 C 1401.20 87.58 1400.95 101.37 1401.00 114.00 C 1401.05 126.63 1401.06 140.57 1401.00 153.00 C 1400.94 165.43 1401.93 176.11 1402.00 187.00
C 1404.76 189.89 1407.30 187.80 1410.00 188.00
C 1411.81 178.01 1411.45 169.21 1412.00 157.00 C 1412.55 144.79 1411.66 129.65 1412.00 117.00 C 1412.34 104.35 1411.65 90.75 1412.00 78.00 C 1412.35 65.25 1411.41 50.58 1412.00 38.00 C 1412.59 25.42 1409.82 11.81 1414.00 2.00
C 1425.57 3.70 1437.99 3.16 1450.00 3.00 C 1462.01 2.84 1476.81 -0.62 1475.00 14.00 C 1473.19 28.62 1475.89 38.64 1475.00 52.00 C 1474.11 65.36 1475.52 76.41 1475.00 89.00 C 1474.48 101.59 1475.51 115.08 1475.00 127.00 C 1474.49 138.92 1475.84 154.24 1475.00 165.00 C 1474.16 175.76 1474.03 182.39 1472.80 190.25 C 1471.57 198.11 1467.39 200.35 1463.76 206.77 C 1460.14 213.19 1453.43 219.48 1447.70 222.71 C 1441.96 225.95 1437.25 226.99 1431.08 229.13 C 1424.91 231.27 1413.89 230.90 1405.00 231.00 C 1396.11 231.10 1388.28 230.27 1380.30 227.69 C 1372.33 225.11 1371.86 224.25 1364.70 220.29 C 1357.54 216.32 1355.67 214.99 1348.70 206.30 C 1341.73 197.61 1338.02 181.30 1339.00 165.00 C 1339.98 148.70 1338.73 141.42 1339.00 127.00 C 1339.27 112.58 1339.26 102.71 1339.00 89.00 C 1338.74 75.29 1340.01 65.78 1339.00 52.00 C 1337.99 38.22 1341.35 28.66 1339.00 14.00 C 1336.65 -0.66 1349.40 2.95 1362.00 3.00 C 1374.60 3.05 1386.93 3.78 1399.00 2.00
M 1601.00 111.00 
C 1616.64 119.05 1623.82 126.33 1623.78 148.22 C 1623.74 170.11 1625.91 204.97 1622.00 227.00
C 1604.30 226.98 1583.68 226.98 1566.00 227.00
C 1563.70 212.79 1565.52 193.03 1565.00 177.00 C 1564.48 160.97 1566.51 142.89 1562.00 130.00
C 1559.39 130.55 1556.65 128.73 1553.00 128.00
C 1553.02 160.53 1552.98 194.19 1553.00 226.00
C 1533.64 228.34 1510.67 226.28 1491.00 227.00
C 1489.20 203.24 1489.98 177.86 1490.00 153.00 C 1490.02 128.14 1489.59 100.81 1490.00 76.00 C 1490.41 51.19 1488.05 24.39 1492.00 2.00
C 1510.44 2.36 1537.35 1.47 1555.25 2.20 C 1573.14 2.92 1587.11 4.25 1598.30 9.71 C 1609.49 15.18 1617.82 25.11 1620.71 36.30 C 1623.60 47.48 1624.63 69.94 1622.79 83.23 C 1620.95 96.52 1615.38 107.77 1601.00 111.00
M 907.00 5.00 
C 909.19 21.35 907.63 40.55 908.00 59.00 C 908.37 77.45 907.73 97.27 908.00 116.00 C 908.27 134.73 907.65 154.16 908.00 173.00 C 908.35 191.84 906.91 211.59 909.00 230.00
C 895.97 233.16 877.47 228.90 863.00 232.00
C 860.82 218.59 862.33 202.53 862.00 187.00 C 861.67 171.47 862.17 154.87 862.00 139.00 C 861.83 123.13 862.13 105.98 862.00 90.00
C 820.52 137.69 778.22 184.09 737.00 232.00
C 720.24 230.38 701.73 230.31 685.00 232.00
C 683.12 230.27 683.90 228.96 683.00 227.00
C 734.50 169.70 786.25 111.08 838.00 52.00
C 786.76 52.67 734.80 50.67 684.00 53.00
C 680.84 39.98 685.10 21.47 682.00 7.00
C 698.35 4.81 717.54 6.37 736.00 6.00 C 754.46 5.63 774.27 6.27 793.00 6.00 C 811.73 5.73 831.16 6.34 850.00 6.00 C 868.84 5.66 888.59 7.09 907.00 5.00 Z"/>
</g>
<g fill="#000000" fill-opacity="0.91" stroke="None">
<path d="
M 599.00 0.00 
L 551.00 0.00
C 539.24 4.51 528.20 7.05 519.24 19.23 C 510.27 31.41 507.74 34.13 505.93 50.93 C 504.12 67.72 504.67 92.71 504.00 112.00 C 503.33 131.29 503.72 159.75 505.68 177.32 C 507.63 194.89 510.71 199.56 519.90 211.10 C 529.09 222.64 540.14 225.95 551.75 229.80 C 563.36 233.65 586.00 230.91 596.75 228.20 C 607.51 225.48 619.07 221.81 627.90 209.90 C 636.73 198.00 639.33 193.84 641.22 177.22 C 643.11 160.61 643.00 133.04 643.00 114.00 C 643.00 94.96 643.19 67.31 640.93 51.08 C 638.68 34.85 637.29 32.28 629.08 19.92 C 620.88 7.56 607.10 5.64 599.00 0.00
M 581.00 3.00 
C 596.33 5.75 606.05 7.25 616.10 15.91 C 626.15 24.56 632.59 32.14 634.80 46.25 C 637.00 60.36 636.53 86.47 637.00 105.00 C 637.47 123.53 636.73 152.90 635.22 170.22 C 633.72 187.55 633.59 193.32 624.41 204.75 C 615.24 216.18 605.89 220.41 593.75 223.80 C 581.61 227.19 558.62 224.98 547.70 221.29 C 536.77 217.59 524.89 211.27 518.30 199.70 C 511.71 188.12 511.87 174.88 510.07 155.93 C 508.28 136.97 511.20 106.18 511.00 88.00 C 510.80 69.82 511.07 49.82 515.26 37.25 C 519.46 24.68 527.96 16.78 538.75 11.61 C 549.54 6.44 563.48 -0.14 581.00 3.00 Z"/>
</g>
<g fill="#000000" fill-opacity="0.91" stroke="None">
<path d="
M 1729.00 0.00 
L 1684.00 0.00
C 1666.27 6.80 1645.71 15.94 1641.21 37.77 C 1636.71 59.60 1636.54 100.51 1637.00 130.00 C 1637.46 159.49 1635.56 189.68 1649.30 207.70 C 1663.05 225.71 1686.04 231.64 1710.00 231.00 C 1733.96 230.37 1750.40 224.11 1764.29 205.30 C 1778.17 186.49 1775.23 158.41 1776.00 129.00 C 1776.77 99.59 1776.72 58.31 1771.71 37.30 C 1766.70 16.29 1746.64 6.18 1729.00 0.00
M 1714.00 3.00 
C 1729.33 5.75 1739.05 7.25 1749.10 15.91 C 1759.15 24.56 1765.59 32.14 1767.80 46.25 C 1770.00 60.36 1769.53 86.47 1770.00 105.00 C 1770.47 123.53 1769.72 152.89 1768.22 170.22 C 1766.72 187.55 1766.59 193.32 1757.41 204.75 C 1748.24 216.18 1738.89 220.41 1726.75 223.80 C 1714.61 227.19 1691.62 224.98 1680.70 221.29 C 1669.77 217.59 1657.89 211.27 1651.30 199.70 C 1644.71 188.12 1644.87 174.88 1643.07 155.93 C 1641.28 136.97 1644.19 106.18 1644.00 88.00 C 1643.81 69.82 1644.07 49.82 1648.26 37.25 C 1652.46 24.68 1660.96 16.77 1671.75 11.61 C 1682.54 6.44 1696.48 -0.14 1714.00 3.00 Z"/>
</g>
<g fill="#000000" fill-opacity="0.95" stroke="None">
<path d="
M 119.00 111.00 
C 133.38 107.77 138.95 96.52 140.79 83.23 C 142.63 69.94 141.60 47.48 138.71 36.30 C 135.82 25.11 127.49 15.18 116.30 9.71 C 105.11 4.25 91.14 2.92 73.25 2.20 C 55.35 1.48 28.44 2.36 10.00 2.00
C 5.96 24.22 8.54 50.30 8.00 75.00 C 7.46 99.70 8.30 127.18 8.00 152.00 C 7.70 176.82 8.24 201.95 8.00 226.00
C 27.53 227.64 51.37 227.67 71.00 226.00
C 70.97 194.19 71.02 160.53 71.00 128.00
C 74.65 128.73 77.39 130.55 80.00 130.00
C 84.51 142.89 82.48 160.97 83.00 177.00 C 83.52 193.03 81.70 212.79 84.00 227.00
C 101.68 226.98 122.30 226.98 140.00 227.00
C 143.91 204.97 141.74 170.11 141.78 148.22 C 141.82 126.33 134.64 119.05 119.00 111.00
M 136.00 221.00 
C 120.00 221.00 104.00 221.00 88.00 221.00
C 88.53 199.96 86.95 171.77 88.78 151.78 C 90.61 131.78 84.10 119.59 65.00 124.00
C 65.03 155.50 64.98 188.81 65.00 221.00
C 48.00 221.00 31.00 221.00 14.00 221.00
C 14.00 150.00 14.00 79.00 14.00 8.00
C 25.72 7.37 39.48 8.84 51.00 8.00 C 62.52 7.16 75.20 8.99 85.22 9.78 C 95.24 10.57 101.73 10.26 108.30 12.71 C 114.88 15.16 119.82 16.76 124.19 23.25 C 128.56 29.74 132.42 32.80 133.31 40.70 C 134.20 48.60 136.90 58.48 136.00 68.00 C 135.10 77.52 134.80 86.45 132.65 92.70 C 130.50 98.95 125.69 104.25 118.75 104.80 C 111.81 105.35 101.48 111.12 110.90 114.12 C 120.32 117.11 121.05 117.13 128.70 124.30 C 136.34 131.47 132.83 135.18 135.00 146.00 C 137.16 156.83 135.62 171.26 136.00 183.00 C 136.38 194.74 135.71 208.11 136.00 220.00 Z"/>
</g>
<g fill="#000000" fill-opacity="0.96" stroke="None">
<path d="
M 217.00 2.00 
C 204.93 3.78 192.60 3.05 180.00 3.00 C 167.40 2.95 154.65 -0.66 157.00 14.00 C 159.35 28.66 155.99 38.22 157.00 52.00 C 158.01 65.78 156.74 75.29 157.00 89.00 C 157.26 102.71 157.27 112.58 157.00 127.00 C 156.73 141.42 157.98 148.70 157.00 165.00 C 156.02 181.30 159.73 197.61 166.70 206.30 C 173.67 214.99 175.54 216.32 182.70 220.29 C 189.86 224.25 190.33 225.11 198.30 227.69 C 206.28 230.27 214.11 231.10 223.00 231.00 C 231.89 230.90 242.91 231.27 249.08 229.13 C 255.25 226.99 259.96 225.95 265.70 222.71 C 271.43 219.48 278.14 213.19 281.76 206.77 C 285.39 200.35 289.57 198.11 290.80 190.25 C 292.03 182.39 292.16 175.76 293.00 165.00 C 293.84 154.24 292.49 138.92 293.00 127.00 C 293.51 115.08 292.48 101.59 293.00 89.00 C 293.52 76.41 292.11 65.36 293.00 52.00 C 293.89 38.64 291.19 28.62 293.00 14.00 C 294.81 -0.62 280.01 2.84 268.00 3.00 C 255.99 3.16 243.57 3.70 232.00 2.00
C 227.82 11.81 230.59 25.42 230.00 38.00 C 229.41 50.58 230.35 65.25 230.00 78.00 C 229.65 90.75 230.34 104.35 230.00 117.00 C 229.66 129.65 230.55 144.79 230.00 157.00 C 229.45 169.21 229.81 178.01 228.00 188.00
C 225.30 187.80 222.76 189.89 220.00 187.00
C 219.93 176.11 218.94 165.43 219.00 153.00 C 219.06 140.57 219.06 126.63 219.00 114.00 C 218.94 101.37 219.20 87.58 219.00 75.00 C 218.80 62.42 219.49 48.25 219.00 36.00 C 218.51 23.75 221.10 11.42 217.00 2.00
M 214.00 8.00 
C 214.00 27.01 214.00 48.21 214.00 67.00 C 214.00 85.79 214.01 108.02 214.00 126.00 C 213.99 143.98 214.04 167.61 213.93 183.07 C 213.82 198.54 234.30 198.77 234.40 183.25 C 234.49 167.72 235.37 145.17 235.00 127.00 C 234.63 108.83 235.19 87.00 235.00 68.00 C 234.81 49.00 235.14 27.25 235.00 8.00
C 252.33 8.00 269.67 8.00 287.00 8.00
C 286.50 41.03 287.67 83.95 287.00 116.00 C 286.33 148.05 290.83 180.50 278.87 200.92 C 266.91 221.34 249.12 225.41 225.00 225.00 C 200.88 224.59 181.50 220.32 169.43 200.23 C 157.36 180.14 163.57 148.95 162.00 117.00 C 160.43 85.05 163.17 41.05 162.00 8.00
C 179.33 8.00 196.67 8.00 214.00 8.00 Z"/>
</g>
<g fill="#000000" fill-opacity="0.96" stroke="None">
<path d="
M 386.00 2.00 
C 373.52 4.38 358.81 2.26 346.00 3.00 C 333.19 3.74 318.81 1.50 308.00 4.00
C 308.00 77.00 308.00 152.98 308.00 226.00
C 324.94 228.29 345.67 226.33 363.00 227.00
C 365.33 193.87 363.34 159.58 364.00 126.00
C 371.24 161.43 372.95 191.80 380.00 227.00
C 392.04 226.96 406.95 226.96 419.00 227.00
C 425.48 195.31 428.51 161.03 433.00 127.00
C 436.00 159.26 432.00 194.33 435.00 227.00
C 452.03 227.01 471.95 226.94 489.00 227.00
C 491.34 153.34 489.33 77.41 490.00 4.00
C 466.51 -0.64 436.07 3.33 411.00 2.00
C 404.78 28.46 404.70 55.01 399.00 83.00
C 397.05 68.64 395.99 56.67 393.66 42.68 C 391.33 28.69 390.92 14.85 386.00 2.00
M 383.00 8.00 
C 386.35 41.34 393.28 74.16 396.00 107.00
C 398.87 108.55 400.07 108.48 403.00 107.00
C 403.33 101.23 403.41 96.33 404.35 89.31 C 405.29 82.28 407.04 74.40 407.67 67.33 C 408.29 60.25 409.64 50.88 410.99 43.99 C 412.35 37.10 410.43 32.87 412.80 26.75 C 415.17 20.63 410.19 8.03 420.00 8.00 C 429.81 7.98 441.78 8.01 452.00 8.00 C 462.22 7.99 473.67 8.01 484.00 8.00
C 484.00 79.00 484.00 150.00 484.00 221.00
C 469.00 221.00 454.00 221.00 439.00 221.00
C 439.65 173.88 437.69 125.01 440.00 79.00
C 437.13 77.45 435.93 77.52 433.00 79.00
C 428.41 126.49 420.40 173.53 415.00 221.00
C 404.67 221.00 394.33 221.00 384.00 221.00
C 378.80 173.99 369.87 127.63 365.00 82.00
C 362.12 80.45 360.93 80.52 358.00 82.00
C 360.33 127.13 358.34 174.87 359.00 221.00
C 344.00 221.00 329.00 221.00 314.00 221.00
C 314.00 150.00 314.00 79.00 314.00 8.00
C 337.00 8.00 360.00 8.00 383.00 8.00 Z"/>
</g>
<g fill="#000000" fill-opacity="0.97" stroke="None">
<path d="
M 1053.00 50.00 
C 1052.00 37.10 1050.90 24.48 1052.00 11.00 C 1053.10 -2.48 1036.64 3.78 1025.00 3.00 C 1013.36 2.22 997.90 3.16 986.00 3.00 C 974.10 2.84 959.97 2.15 950.00 4.00
C 950.68 77.27 948.66 154.01 951.00 227.00
C 970.67 226.28 993.64 228.34 1013.00 226.00
C 1012.97 196.53 1013.02 165.19 1013.00 135.00
C 1024.67 135.00 1036.33 135.00 1048.00 135.00
C 1049.63 119.85 1049.63 103.14 1048.00 88.00
C 1036.33 88.00 1024.67 88.00 1013.00 88.00
C 1013.00 76.00 1013.00 64.00 1013.00 52.00
C 1026.05 50.62 1042.51 54.76 1053.00 50.00
M 1047.00 8.00 
C 1047.00 21.00 1047.00 34.00 1047.00 47.00
C 1033.79 47.19 1019.41 46.73 1007.00 47.00
C 1007.05 61.43 1007.04 78.56 1007.00 93.00
C 1018.09 93.32 1031.12 92.77 1043.00 93.00
C 1043.00 105.33 1043.00 117.67 1043.00 130.00
C 1031.11 130.23 1018.09 129.68 1007.00 130.00
C 1007.05 159.50 1006.96 190.80 1007.00 221.00
C 990.00 221.00 973.00 221.00 956.00 221.00
C 956.00 150.00 956.00 79.00 956.00 8.00
C 986.34 8.00 1016.67 8.00 1047.00 8.00 Z"/>
</g>
<g fill="#000000" fill-opacity="0.96" stroke="None">
<path d="
M 1120.00 2.00 
C 1107.93 3.78 1095.60 3.05 1083.00 3.00 C 1070.40 2.95 1057.65 -0.66 1060.00 14.00 C 1062.35 28.66 1058.99 38.22 1060.00 52.00 C 1061.01 65.78 1059.74 75.29 1060.00 89.00 C 1060.26 102.71 1060.27 112.58 1060.00 127.00 C 1059.73 141.42 1060.98 148.70 1060.00 165.00 C 1059.02 181.30 1062.73 197.61 1069.70 206.30 C 1076.67 214.98 1078.54 216.32 1085.70 220.29 C 1092.85 224.25 1093.33 225.11 1101.30 227.69 C 1109.27 230.27 1117.11 231.10 1126.00 231.00 C 1134.89 230.90 1145.91 231.27 1152.08 229.13 C 1158.25 226.99 1162.96 225.95 1168.70 222.71 C 1174.43 219.48 1181.14 213.19 1184.76 206.77 C 1188.39 200.35 1192.57 198.11 1193.80 190.25 C 1195.03 182.39 1195.16 175.76 1196.00 165.00 C 1196.84 154.24 1195.49 138.92 1196.00 127.00 C 1196.51 115.08 1195.48 101.59 1196.00 89.00 C 1196.52 76.41 1195.11 65.36 1196.00 52.00 C 1196.89 38.64 1194.19 28.62 1196.00 14.00 C 1197.81 -0.62 1183.01 2.84 1171.00 3.00 C 1158.99 3.16 1146.57 3.70 1135.00 2.00
C 1130.82 11.81 1133.59 25.42 1133.00 38.00 C 1132.41 50.58 1133.35 65.25 1133.00 78.00 C 1132.65 90.75 1133.34 104.35 1133.00 117.00 C 1132.66 129.65 1133.55 144.79 1133.00 157.00 C 1132.45 169.21 1132.81 178.01 1131.00 188.00
C 1128.30 187.80 1125.76 189.89 1123.00 187.00
C 1122.93 176.11 1121.94 165.43 1122.00 153.00 C 1122.06 140.57 1122.06 126.63 1122.00 114.00 C 1121.94 101.37 1122.20 87.58 1122.00 75.00 C 1121.80 62.42 1122.49 48.25 1122.00 36.00 C 1121.51 23.75 1124.10 11.42 1120.00 2.00
M 1117.00 8.00 
C 1117.00 27.01 1117.00 48.21 1117.00 67.00 C 1117.00 85.79 1117.01 108.02 1117.00 126.00 C 1116.99 143.98 1117.04 167.61 1116.93 183.07 C 1116.82 198.54 1137.30 198.77 1137.40 183.25 C 1137.50 167.72 1138.37 145.17 1138.00 127.00 C 1137.63 108.83 1138.19 87.00 1138.00 68.00 C 1137.81 49.00 1138.14 27.25 1138.00 8.00
C 1155.34 8.00 1172.66 8.00 1190.00 8.00
C 1189.50 41.03 1190.67 83.95 1190.00 116.00 C 1189.33 148.05 1193.83 180.50 1181.87 200.92 C 1169.91 221.34 1152.12 225.41 1128.00 225.00 C 1103.88 224.59 1084.50 220.32 1072.43 200.23 C 1060.36 180.14 1066.57 148.95 1065.00 117.00 C 1063.43 85.05 1066.18 41.05 1065.00 8.00
C 1082.33 8.00 1099.67 8.00 1117.00 8.00 Z"/>
</g>
<g fill="#000000" fill-opacity="1.00" stroke="None">
<path d="
M 1332.00 4.00 
C 1323.91 1.72 1313.14 3.37 1303.00 3.00 C 1292.86 2.63 1281.32 3.22 1271.00 3.00 C 1260.68 2.78 1249.27 3.21 1239.00 3.00 C 1228.74 2.79 1216.97 3.36 1207.03 2.98 C 1197.08 2.60 1203.00 17.79 1202.00 26.00 C 1201.00 34.21 1200.99 46.99 1204.00 53.00
C 1214.14 50.71 1225.41 52.64 1236.00 52.00
C 1236.01 110.19 1235.99 169.50 1236.00 227.00
C 1255.39 226.95 1277.62 227.00 1297.00 227.00
C 1299.32 169.89 1297.34 110.13 1298.00 52.00
C 1309.25 51.36 1321.17 53.30 1332.00 51.00
C 1331.97 36.31 1331.97 18.71 1332.00 4.00
M 1326.00 8.00 
C 1326.00 21.00 1326.00 34.00 1326.00 47.00
C 1314.77 47.25 1302.44 46.65 1292.00 47.00
C 1292.01 104.16 1291.99 163.14 1292.00 221.00
C 1275.00 221.00 1258.00 221.00 1241.00 221.00
C 1240.33 162.76 1242.33 103.80 1240.00 46.00
C 1229.50 48.29 1217.92 46.36 1207.00 47.00
C 1207.00 34.00 1207.00 21.00 1207.00 8.00
C 1246.66 8.00 1286.34 8.00 1326.00 8.00 Z"/>
</g>
<g fill="#000000" fill-opacity="0.96" stroke="None">
<path d="
M 1399.00 2.00 
C 1386.93 3.78 1374.60 3.05 1362.00 3.00 C 1349.40 2.95 1336.65 -0.66 1339.00 14.00 C 1341.35 28.66 1337.99 38.22 1339.00 52.00 C 1340.01 65.78 1338.74 75.29 1339.00 89.00 C 1339.26 102.71 1339.27 112.58 1339.00 127.00 C 1338.73 141.42 1339.98 148.70 1339.00 165.00 C 1338.02 181.30 1341.73 197.61 1348.70 206.30 C 1355.67 214.99 1357.54 216.32 1364.70 220.29 C 1371.86 224.25 1372.33 225.11 1380.30 227.69 C 1388.28 230.27 1396.11 231.10 1405.00 231.00 C 1413.89 230.90 1424.91 231.27 1431.08 229.13 C 1437.25 226.99 1441.96 225.95 1447.70 222.71 C 1453.43 219.48 1460.14 213.19 1463.76 206.77 C 1467.39 200.35 1471.57 198.11 1472.80 190.25 C 1474.03 182.39 1474.16 175.76 1475.00 165.00 C 1475.84 154.24 1474.49 138.92 1475.00 127.00 C 1475.51 115.08 1474.48 101.59 1475.00 89.00 C 1475.52 76.41 1474.11 65.36 1475.00 52.00 C 1475.89 38.64 1473.19 28.62 1475.00 14.00 C 1476.81 -0.62 1462.01 2.84 1450.00 3.00 C 1437.99 3.16 1425.57 3.70 1414.00 2.00
C 1409.82 11.81 1412.59 25.42 1412.00 38.00 C 1411.41 50.58 1412.35 65.25 1412.00 78.00 C 1411.65 90.75 1412.34 104.35 1412.00 117.00 C 1411.66 129.65 1412.55 144.79 1412.00 157.00 C 1411.45 169.21 1411.81 178.01 1410.00 188.00
C 1407.30 187.80 1404.76 189.89 1402.00 187.00
C 1401.93 176.11 1400.94 165.43 1401.00 153.00 C 1401.06 140.57 1401.05 126.63 1401.00 114.00 C 1400.95 101.37 1401.20 87.58 1401.00 75.00 C 1400.80 62.42 1401.49 48.25 1401.00 36.00 C 1400.51 23.75 1403.10 11.42 1399.00 2.00
M 1396.00 8.00 
C 1396.00 27.01 1396.00 48.21 1396.00 67.00 C 1396.00 85.79 1396.01 108.02 1396.00 126.00 C 1395.99 143.98 1396.04 167.61 1395.93 183.07 C 1395.82 198.54 1416.30 198.77 1416.40 183.25 C 1416.49 167.72 1417.37 145.17 1417.00 127.00 C 1416.63 108.83 1417.19 87.00 1417.00 68.00 C 1416.81 49.00 1417.14 27.25 1417.00 8.00
C 1434.33 8.00 1451.67 8.00 1469.00 8.00
C 1468.50 41.03 1469.67 83.95 1469.00 116.00 C 1468.33 148.05 1472.83 180.50 1460.87 200.92 C 1448.91 221.34 1431.12 225.41 1407.00 225.00 C 1382.88 224.59 1363.51 220.32 1351.43 200.23 C 1339.35 180.14 1345.57 148.95 1344.00 117.00 C 1342.43 85.05 1345.18 41.05 1344.00 8.00
C 1361.34 8.00 1378.67 8.00 1396.00 8.00 Z"/>
</g>
<g fill="#000000" fill-opacity="0.95" stroke="None">
<path d="
M 1601.00 111.00 
C 1615.38 107.77 1620.95 96.52 1622.79 83.23 C 1624.63 69.94 1623.60 47.48 1620.71 36.30 C 1617.82 25.11 1609.49 15.18 1598.30 9.71 C 1587.11 4.25 1573.14 2.92 1555.25 2.20 C 1537.35 1.47 1510.44 2.36 1492.00 2.00
C 1488.05 24.39 1490.41 51.19 1490.00 76.00 C 1489.59 100.81 1490.02 128.14 1490.00 153.00 C 1489.98 177.86 1489.20 203.24 1491.00 227.00
C 1510.67 226.28 1533.64 228.34 1553.00 226.00
C 1552.98 194.19 1553.02 160.53 1553.00 128.00
C 1556.65 128.73 1559.39 130.55 1562.00 130.00
C 1566.51 142.89 1564.48 160.97 1565.00 177.00 C 1565.52 193.03 1563.70 212.79 1566.00 227.00
C 1583.68 226.98 1604.30 226.98 1622.00 227.00
C 1625.91 204.97 1623.74 170.11 1623.78 148.22 C 1623.82 126.33 1616.64 119.05 1601.00 111.00
M 1618.00 221.00 
C 1602.00 221.00 1586.00 221.00 1570.00 221.00
C 1570.53 199.96 1568.95 171.77 1570.78 151.78 C 1572.61 131.78 1566.10 119.59 1547.00 124.00
C 1547.03 155.49 1546.98 188.81 1547.00 221.00
C 1530.00 221.00 1513.00 221.00 1496.00 221.00
C 1496.00 150.00 1496.00 79.00 1496.00 8.00
C 1507.72 7.37 1521.48 8.84 1533.00 8.00 C 1544.52 7.16 1557.20 8.99 1567.22 9.78 C 1577.24 10.57 1583.73 10.27 1590.30 12.71 C 1596.88 15.16 1601.82 16.76 1606.19 23.25 C 1610.56 29.74 1614.42 32.80 1615.31 40.70 C 1616.20 48.60 1618.90 58.48 1618.00 68.00 C 1617.10 77.52 1616.79 86.45 1614.65 92.70 C 1612.50 98.95 1607.69 104.25 1600.75 104.80 C 1593.82 105.35 1583.48 111.12 1592.90 114.12 C 1602.32 117.11 1603.05 117.13 1610.70 124.30 C 1618.34 131.47 1614.84 135.18 1617.00 146.00 C 1619.16 156.83 1617.62 171.26 1618.00 183.00 C 1618.38 194.74 1617.71 208.11 1618.00 220.00 Z"/>
</g>
<g fill="#000000" fill-opacity="0.02" stroke="None">
<path d="
M 581.00 3.00 
C 563.48 -0.14 549.54 6.44 538.75 11.61 C 527.96 16.78 519.46 24.68 515.26 37.25 C 511.07 49.82 510.80 69.82 511.00 88.00 C 511.20 106.18 508.28 136.97 510.07 155.93 C 511.87 174.88 511.71 188.12 518.30 199.70 C 524.89 211.27 536.77 217.59 547.70 221.29 C 558.62 224.98 581.61 227.19 593.75 223.80 C 605.89 220.41 615.24 216.18 624.41 204.75 C 633.59 193.32 633.72 187.55 635.22 170.22 C 636.73 152.90 637.47 123.53 637.00 105.00 C 636.53 86.47 637.00 60.36 634.80 46.25 C 632.59 32.14 626.15 24.56 616.10 15.91 C 606.05 7.25 596.33 5.75 581.00 3.00
M 570.00 35.00 
C 583.71 31.40 584.88 42.97 585.00 56.00 C 585.13 69.03 586.82 93.30 586.00 108.00 C 585.18 122.70 586.89 145.75 586.00 160.00 C 585.11 174.25 588.05 189.99 576.25 193.40 C 564.46 196.82 560.31 185.65 561.00 172.00 C 561.69 158.35 562.30 134.55 562.00 120.00 C 561.70 105.45 562.07 81.19 562.00 68.00 C 561.93 54.81 558.68 37.97 570.00 35.00 Z"/>
</g>
<g fill="#000000" fill-opacity="0.02" stroke="None">
<path d="
M 1714.00 3.00 
C 1696.48 -0.14 1682.54 6.44 1671.75 11.61 C 1660.96 16.77 1652.46 24.68 1648.26 37.25 C 1644.07 49.82 1643.81 69.82 1644.00 88.00 C 1644.19 106.18 1641.28 136.97 1643.07 155.93 C 1644.87 174.88 1644.71 188.12 1651.30 199.70 C 1657.89 211.27 1669.77 217.59 1680.70 221.29 C 1691.62 224.98 1714.61 227.19 1726.75 223.80 C 1738.89 220.41 1748.24 216.18 1757.41 204.75 C 1766.59 193.32 1766.72 187.55 1768.22 170.22 C 1769.72 152.89 1770.47 123.53 1770.00 105.00 C 1769.53 86.47 1770.00 60.36 1767.80 46.25 C 1765.59 32.14 1759.15 24.56 1749.10 15.91 C 1739.05 7.25 1729.33 5.75 1714.00 3.00
M 1703.00 35.00 
C 1716.71 31.40 1717.88 42.97 1718.00 56.00 C 1718.13 69.03 1719.82 93.30 1719.00 108.00 C 1718.18 122.70 1719.89 145.75 1719.00 160.00 C 1718.11 174.25 1721.05 189.99 1709.25 193.40 C 1697.46 196.82 1693.31 185.65 1694.00 172.00 C 1694.69 158.35 1695.30 134.55 1695.00 120.00 C 1694.70 105.45 1695.07 81.19 1695.00 68.00 C 1694.93 54.81 1691.68 37.97 1703.00 35.00 Z"/>
</g>
<g fill="#000000" fill-opacity="0.95" stroke="None">
<path d="
M 907.00 5.00 
C 888.59 7.09 868.84 5.66 850.00 6.00 C 831.16 6.34 811.73 5.73 793.00 6.00 C 774.27 6.27 754.46 5.63 736.00 6.00 C 717.54 6.37 698.35 4.81 682.00 7.00
C 685.10 21.47 680.84 39.98 684.00 53.00
C 734.80 50.67 786.76 52.67 838.00 52.00
C 786.25 111.08 734.50 169.70 683.00 227.00
C 683.90 228.96 683.12 230.27 685.00 232.00
C 701.73 230.31 720.24 230.38 737.00 232.00
C 778.22 184.09 820.52 137.69 862.00 90.00
C 862.13 105.98 861.83 123.13 862.00 139.00 C 862.17 154.87 861.67 171.47 862.00 187.00 C 862.33 202.53 860.82 218.59 863.00 232.00
C 877.47 228.90 895.97 233.16 909.00 230.00
C 906.91 211.59 908.35 191.84 908.00 173.00 C 907.65 154.16 908.27 134.73 908.00 116.00 C 907.73 97.27 908.37 77.45 908.00 59.00 C 907.63 40.55 909.19 21.35 907.00 5.00
M 904.00 10.00 
C 904.00 82.33 904.00 154.67 904.00 227.00
C 891.33 227.00 878.67 227.00 866.00 227.00
C 865.72 202.66 866.38 176.12 866.00 152.00 C 865.62 127.88 867.17 102.38 865.00 81.00
C 858.30 83.39 854.21 93.08 847.75 98.75 C 841.28 104.42 837.40 110.87 830.77 116.77 C 824.14 122.67 821.18 130.17 814.41 135.75 C 807.65 141.33 805.52 148.68 799.20 154.25 C 792.88 159.81 787.47 166.61 782.74 172.75 C 778.01 178.89 770.43 185.23 765.29 191.30 C 760.15 197.38 755.61 204.66 749.24 210.25 C 742.88 215.83 740.63 225.33 731.00 227.00 C 721.36 228.66 701.56 225.76 691.00 227.00
C 699.32 217.99 705.38 208.86 713.39 200.25 C 721.41 191.63 729.00 183.63 736.13 175.08 C 743.26 166.53 751.28 158.22 758.19 149.75 C 765.10 141.28 775.35 132.90 781.59 124.25 C 787.83 115.59 797.57 107.94 804.25 99.25 C 810.93 90.56 819.74 82.11 826.75 73.75 C 833.76 65.39 845.72 56.72 844.00 47.00
C 792.17 49.33 739.25 47.33 687.00 48.00
C 687.00 35.33 687.00 22.67 687.00 10.00
C 759.33 10.00 831.67 10.00 904.00 10.00 Z"/>
</g>
<g fill="#000000" fill-opacity="0.01" stroke="None">
<path d="
M 136.00 220.00 
C 135.71 208.11 136.38 194.74 136.00 183.00 C 135.62 171.26 137.16 156.83 135.00 146.00 C 132.83 135.18 136.34 131.47 128.70 124.30 C 121.05 117.13 120.32 117.11 110.90 114.12 C 101.48 111.12 111.81 105.35 118.75 104.80 C 125.69 104.25 130.50 98.95 132.65 92.70 C 134.80 86.45 135.10 77.52 136.00 68.00 C 136.90 58.48 134.20 48.60 133.31 40.70 C 132.42 32.80 128.56 29.74 124.19 23.25 C 119.82 16.76 114.88 15.16 108.30 12.71 C 101.73 10.26 95.24 10.57 85.22 9.78 C 75.20 8.99 62.52 7.16 51.00 8.00 C 39.48 8.84 25.72 7.37 14.00 8.00
C 14.00 79.00 14.00 150.00 14.00 221.00
C 31.00 221.00 48.00 221.00 65.00 221.00
C 64.98 188.81 65.03 155.50 65.00 124.00
C 84.10 119.59 90.61 131.78 88.78 151.78 C 86.95 171.77 88.53 199.96 88.00 221.00
C 104.00 221.00 120.00 221.00 136.00 221.00
M 65.00 93.00 
C 64.99 76.61 65.07 57.40 65.00 41.00
C 86.53 35.32 88.20 53.04 88.00 70.00 C 87.80 86.96 83.96 98.60 65.00 93.00 Z"/>
</g>
<g fill="#000000" fill-opacity="0.02" stroke="None">
<path d="
M 214.00 8.00 
C 196.67 8.00 179.33 8.00 162.00 8.00
C 163.17 41.05 160.43 85.05 162.00 117.00 C 163.57 148.95 157.36 180.14 169.43 200.23 C 181.50 220.32 200.88 224.59 225.00 225.00 C 249.12 225.41 266.91 221.34 278.87 200.92 C 290.83 180.50 286.33 148.05 287.00 116.00 C 287.67 83.95 286.50 41.03 287.00 8.00
C 269.67 8.00 252.33 8.00 235.00 8.00
C 235.14 27.25 234.81 49.00 235.00 68.00 C 235.19 87.00 234.63 108.83 235.00 127.00 C 235.37 145.17 234.49 167.72 234.40 183.25 C 234.30 198.77 213.82 198.54 213.93 183.07 C 214.04 167.61 213.99 143.98 214.00 126.00 C 214.01 108.02 214.00 85.79 214.00 67.00 C 214.00 48.21 214.00 27.01 214.00 8.00 Z"/>
</g>
<g fill="#000000" fill-opacity="0.02" stroke="None">
<path d="
M 383.00 8.00 
C 360.00 8.00 337.00 8.00 314.00 8.00
C 314.00 79.00 314.00 150.00 314.00 221.00
C 329.00 221.00 344.00 221.00 359.00 221.00
C 358.34 174.87 360.33 127.13 358.00 82.00
C 360.93 80.52 362.12 80.45 365.00 82.00
C 369.87 127.63 378.80 173.99 384.00 221.00
C 394.33 221.00 404.67 221.00 415.00 221.00
C 420.40 173.53 428.41 126.49 433.00 79.00
C 435.93 77.52 437.13 77.45 440.00 79.00
C 437.69 125.01 439.65 173.88 439.00 221.00
C 454.00 221.00 469.00 221.00 484.00 221.00
C 484.00 150.00 484.00 79.00 484.00 8.00
C 473.67 8.01 462.22 7.99 452.00 8.00 C 441.78 8.01 429.81 7.98 420.00 8.00 C 410.19 8.03 415.17 20.63 412.80 26.75 C 410.43 32.87 412.35 37.10 410.99 43.99 C 409.64 50.88 408.29 60.25 407.67 67.33 C 407.04 74.40 405.29 82.28 404.35 89.31 C 403.41 96.33 403.33 101.23 403.00 107.00
C 400.07 108.48 398.87 108.55 396.00 107.00
C 393.28 74.16 386.35 41.34 383.00 8.00 Z"/>
</g>
<g fill="#000000" fill-opacity="0.02" stroke="None">
<path d="
M 1047.00 8.00 
C 1016.67 8.00 986.34 8.00 956.00 8.00
C 956.00 79.00 956.00 150.00 956.00 221.00
C 973.00 221.00 990.00 221.00 1007.00 221.00
C 1006.96 190.80 1007.05 159.50 1007.00 130.00
C 1018.09 129.68 1031.11 130.23 1043.00 130.00
C 1043.00 117.67 1043.00 105.33 1043.00 93.00
C 1031.12 92.77 1018.09 93.32 1007.00 93.00
C 1007.04 78.56 1007.05 61.43 1007.00 47.00
C 1019.41 46.73 1033.79 47.19 1047.00 47.00
C 1047.00 34.00 1047.00 21.00 1047.00 8.00 Z"/>
</g>
<g fill="#000000" fill-opacity="0.02" stroke="None">
<path d="
M 1117.00 8.00 
C 1099.67 8.00 1082.33 8.00 1065.00 8.00
C 1066.18 41.05 1063.43 85.05 1065.00 117.00 C 1066.57 148.95 1060.36 180.14 1072.43 200.23 C 1084.50 220.32 1103.88 224.59 1128.00 225.00 C 1152.12 225.41 1169.91 221.34 1181.87 200.92 C 1193.83 180.50 1189.33 148.05 1190.00 116.00 C 1190.67 83.95 1189.50 41.03 1190.00 8.00
C 1172.66 8.00 1155.34 8.00 1138.00 8.00
C 1138.14 27.25 1137.81 49.00 1138.00 68.00 C 1138.19 87.00 1137.63 108.83 1138.00 127.00 C 1138.37 145.17 1137.50 167.72 1137.40 183.25 C 1137.30 198.77 1116.82 198.54 1116.93 183.07 C 1117.04 167.61 1116.99 143.98 1117.00 126.00 C 1117.01 108.02 1117.00 85.79 1117.00 67.00 C 1117.00 48.21 1117.00 27.01 1117.00 8.00 Z"/>
</g>
<g fill="#000000" fill-opacity="0.01" stroke="None">
<path d="
M 1326.00 8.00 
C 1286.34 8.00 1246.66 8.00 1207.00 8.00
C 1207.00 21.00 1207.00 34.00 1207.00 47.00
C 1217.92 46.36 1229.50 48.29 1240.00 46.00
C 1242.33 103.80 1240.33 162.76 1241.00 221.00
C 1258.00 221.00 1275.00 221.00 1292.00 221.00
C 1291.99 163.14 1292.01 104.16 1292.00 47.00
C 1302.44 46.65 1314.77 47.25 1326.00 47.00
C 1326.00 34.00 1326.00 21.00 1326.00 8.00 Z"/>
</g>
<g fill="#000000" fill-opacity="0.02" stroke="None">
<path d="
M 1396.00 8.00 
C 1378.67 8.00 1361.34 8.00 1344.00 8.00
C 1345.18 41.05 1342.43 85.05 1344.00 117.00 C 1345.57 148.95 1339.35 180.14 1351.43 200.23 C 1363.51 220.32 1382.88 224.59 1407.00 225.00 C 1431.12 225.41 1448.91 221.34 1460.87 200.92 C 1472.83 180.50 1468.33 148.05 1469.00 116.00 C 1469.67 83.95 1468.50 41.03 1469.00 8.00
C 1451.67 8.00 1434.33 8.00 1417.00 8.00
C 1417.14 27.25 1416.81 49.00 1417.00 68.00 C 1417.19 87.00 1416.63 108.83 1417.00 127.00 C 1417.37 145.17 1416.49 167.72 1416.40 183.25 C 1416.30 198.77 1395.82 198.54 1395.93 183.07 C 1396.04 167.61 1395.99 143.98 1396.00 126.00 C 1396.01 108.02 1396.00 85.79 1396.00 67.00 C 1396.00 48.21 1396.00 27.01 1396.00 8.00 Z"/>
</g>
<g fill="#000000" fill-opacity="0.01" stroke="None">
<path d="
M 1618.00 220.00 
C 1617.71 208.11 1618.38 194.74 1618.00 183.00 C 1617.62 171.26 1619.16 156.83 1617.00 146.00 C 1614.84 135.18 1618.34 131.47 1610.70 124.30 C 1603.05 117.13 1602.32 117.11 1592.90 114.12 C 1583.48 111.12 1593.82 105.35 1600.75 104.80 C 1607.69 104.25 1612.50 98.95 1614.65 92.70 C 1616.79 86.45 1617.10 77.52 1618.00 68.00 C 1618.90 58.48 1616.20 48.60 1615.31 40.70 C 1614.42 32.80 1610.56 29.74 1606.19 23.25 C 1601.82 16.76 1596.88 15.16 1590.30 12.71 C 1583.73 10.27 1577.24 10.57 1567.22 9.78 C 1557.20 8.99 1544.52 7.16 1533.00 8.00 C 1521.48 8.84 1507.72 7.37 1496.00 8.00
C 1496.00 79.00 1496.00 150.00 1496.00 221.00
C 1513.00 221.00 1530.00 221.00 1547.00 221.00
C 1546.98 188.81 1547.03 155.49 1547.00 124.00
C 1566.10 119.59 1572.61 131.78 1570.78 151.78 C 1568.95 171.77 1570.53 199.96 1570.00 221.00
C 1586.00 221.00 1602.00 221.00 1618.00 221.00
M 1547.00 93.00 
C 1546.99 76.61 1547.07 57.40 1547.00 41.00
C 1568.53 35.32 1570.20 53.04 1570.00 70.00 C 1569.80 86.96 1565.96 98.60 1547.00 93.00 Z"/>
</g>
<g fill="#000000" fill-opacity="0.02" stroke="None">
<path d="
M 904.00 10.00 
C 831.67 10.00 759.33 10.00 687.00 10.00
C 687.00 22.67 687.00 35.33 687.00 48.00
C 739.25 47.33 792.17 49.33 844.00 47.00
C 845.72 56.72 833.76 65.39 826.75 73.75 C 819.74 82.11 810.93 90.56 804.25 99.25 C 797.57 107.94 787.83 115.59 781.59 124.25 C 775.35 132.90 765.10 141.28 758.19 149.75 C 751.28 158.22 743.26 166.53 736.13 175.08 C 729.00 183.63 721.41 191.63 713.39 200.25 C 705.38 208.86 699.32 217.99 691.00 227.00
C 701.56 225.76 721.36 228.66 731.00 227.00 C 740.63 225.33 742.88 215.83 749.24 210.25 C 755.61 204.66 760.15 197.38 765.29 191.30 C 770.43 185.23 778.01 178.89 782.74 172.75 C 787.47 166.61 792.88 159.81 799.20 154.25 C 805.52 148.68 807.65 141.33 814.41 135.75 C 821.18 130.17 824.14 122.67 830.77 116.77 C 837.40 110.87 841.28 104.42 847.75 98.75 C 854.21 93.08 858.30 83.39 865.00 81.00
C 867.17 102.38 865.62 127.88 866.00 152.00 C 866.38 176.12 865.72 202.66 866.00 227.00
C 878.67 227.00 891.33 227.00 904.00 227.00
C 904.00 154.67 904.00 82.33 904.00 10.00 Z"/>
</g>
<g fill="#000000" fill-opacity="0.91" stroke="None">
<path d="
M 570.00 35.00 
C 558.68 37.97 561.93 54.81 562.00 68.00 C 562.07 81.19 561.70 105.45 562.00 120.00 C 562.30 134.55 561.69 158.35 561.00 172.00 C 560.31 185.65 564.46 196.82 576.25 193.40 C 588.05 189.99 585.11 174.25 586.00 160.00 C 586.89 145.75 585.18 122.70 586.00 108.00 C 586.82 93.30 585.13 69.03 585.00 56.00 C 584.88 42.97 583.71 31.40 570.00 35.00
M 568.00 186.00 
C 567.85 163.79 567.42 136.06 568.00 112.00 C 568.58 87.94 565.42 60.86 570.00 41.00
C 583.26 41.18 578.99 55.97 580.00 69.00 C 581.01 82.03 579.64 102.30 580.00 116.00 C 580.36 129.70 580.05 149.93 580.00 163.00 C 579.95 176.07 581.01 193.08 568.00 186.00 Z"/>
</g>
<g fill="#000000" fill-opacity="0.91" stroke="None">
<path d="
M 1703.00 35.00 
C 1691.68 37.97 1694.93 54.81 1695.00 68.00 C 1695.07 81.19 1694.70 105.45 1695.00 120.00 C 1695.30 134.55 1694.69 158.35 1694.00 172.00 C 1693.31 185.65 1697.46 196.82 1709.25 193.40 C 1721.05 189.99 1718.11 174.25 1719.00 160.00 C 1719.89 145.75 1718.18 122.70 1719.00 108.00 C 1719.82 93.30 1718.13 69.03 1718.00 56.00 C 1717.88 42.97 1716.71 31.40 1703.00 35.00
M 1701.00 186.00 
C 1700.85 163.79 1700.42 136.06 1701.00 112.00 C 1701.58 87.94 1698.42 60.85 1703.00 41.00
C 1716.26 41.18 1712.00 55.97 1713.00 69.00 C 1714.00 82.03 1712.64 102.30 1713.00 116.00 C 1713.36 129.70 1713.05 149.93 1713.00 163.00 C 1712.95 176.07 1714.01 193.08 1701.00 186.00 Z"/>
</g>
<g fill="#000000" fill-opacity="0.95" stroke="None">
<path d="
M 65.00 93.00 
C 83.96 98.60 87.80 86.96 88.00 70.00 C 88.20 53.04 86.53 35.32 65.00 41.00
C 65.07 57.40 64.99 76.61 65.00 93.00
M 71.00 89.00 
C 71.00 74.67 71.00 60.33 71.00 46.00
C 83.75 45.25 82.12 56.22 82.00 67.00 C 81.88 77.78 84.56 88.91 71.00 89.00 Z"/>
</g>
<g fill="#000000" fill-opacity="0.95" stroke="None">
<path d="
M 1547.00 93.00 
C 1565.96 98.60 1569.80 86.96 1570.00 70.00 C 1570.20 53.04 1568.53 35.32 1547.00 41.00
C 1547.07 57.40 1546.99 76.61 1547.00 93.00
M 1553.00 89.00 
C 1553.00 74.67 1553.00 60.33 1553.00 46.00
C 1565.75 45.25 1564.12 56.22 1564.00 67.00 C 1563.88 77.78 1566.56 88.91 1553.00 89.00 Z"/>
</g>
<g fill="#000000" fill-opacity="0.05" stroke="None">
<path d="
M 568.00 186.00 
C 581.01 193.08 579.95 176.07 580.00 163.00 C 580.05 149.93 580.36 129.70 580.00 116.00 C 579.64 102.30 581.01 82.03 580.00 69.00 C 578.99 55.97 583.26 41.18 570.00 41.00
C 565.42 60.86 568.58 87.94 568.00 112.00 C 567.42 136.06 567.85 163.79 568.00 186.00 Z"/>
</g>
<g fill="#000000" fill-opacity="0.05" stroke="None">
<path d="
M 1701.00 186.00 
C 1714.01 193.08 1712.95 176.07 1713.00 163.00 C 1713.05 149.93 1713.36 129.70 1713.00 116.00 C 1712.64 102.30 1714.00 82.03 1713.00 69.00 C 1712.00 55.97 1716.26 41.18 1703.00 41.00
C 1698.42 60.85 1701.58 87.94 1701.00 112.00 C 1700.42 136.06 1700.85 163.79 1701.00 186.00 Z"/>
</g>
<g fill="#000000" fill-opacity="0.04" stroke="None">
<path d="
M 71.00 89.00 
C 84.56 88.91 81.88 77.78 82.00 67.00 C 82.12 56.22 83.75 45.25 71.00 46.00
C 71.00 60.33 71.00 74.67 71.00 89.00 Z"/>
</g>
<g fill="#000000" fill-opacity="0.04" stroke="None">
<path d="
M 1553.00 89.00 
C 1566.56 88.91 1563.88 77.78 1564.00 67.00 C 1564.12 56.22 1565.75 45.25 1553.00 46.00
C 1553.00 60.33 1553.00 74.67 1553.00 89.00 Z"/>
</g>
</svg>