<?xml version="1.0" encoding="utf-8"?>
<!-- Generator: Adobe Illustrator 16.0.0, SVG Export Plug-In . SVG Version: 6.00 Build 0)  -->
<!DOCTYPE svg PUBLIC "-//W3C//DTD SVG 1.1//EN" "http://www.w3.org/Graphics/SVG/1.1/DTD/svg11.dtd">
<svg version="1.1" id="Camada_1" xmlns="http://www.w3.org/2000/svg" xmlns:xlink="http://www.w3.org/1999/xlink" x="0px" y="0px"
	 width="500px" height="500px" viewBox="0 0 500 500" enable-background="new 0 0 500 500" xml:space="preserve">

<g>
	<g>
		<path d="M3.468,252.415v-50.414c0-1.085,0.636-1.939,1.446-1.939h18.327c9.829,0,16.767,7.369,16.767,19.313
			c0,8.222-3.238,14.194-8.499,17.141l7.574,14.426c0.925,1.784,0.173,3.413-1.041,3.413H29.89c-0.983,0-1.503-0.466-2.082-1.551
			l-7.458-14.194H13.76v13.805c0,1.086-0.636,1.939-1.445,1.939h-7.4C4.104,254.354,3.468,253.501,3.468,252.415z M23.588,225.735
			c3.642,0,6.128-1.396,6.128-6.36s-2.486-6.438-6.128-6.438H13.76v12.798H23.588z"/>
		<path d="M46.075,200.062h7.4c0.868,0,1.446,0.776,1.446,1.939v28.542c0,7.136,3.584,12.177,8.672,12.177
			c5.087,0,8.672-5.041,8.672-12.177v-28.542c0-1.163,0.579-1.939,1.446-1.939h7.4c0.867,0,1.445,0.776,1.445,1.939v30.326
			c0,13.651-7.805,23.269-18.963,23.269c-11.159,0-18.964-9.618-18.964-23.269v-30.326C44.63,200.838,45.208,200.062,46.075,200.062
			z"/>
		<path d="M88.914,252.415v-50.414c0-1.085,0.636-1.939,1.446-1.939h10.002c0.52,0,1.041,0.465,1.214,1.086l10.522,34.126
			l10.522-34.126c0.173-0.621,0.694-1.086,1.214-1.086h10.002c0.81,0,1.445,0.854,1.445,1.939v50.414
			c0,1.086-0.636,1.939-1.445,1.939h-7.4c-0.81,0-1.445-0.854-1.445-1.939V228.76l-7.574,24.509
			c-0.174,0.62-0.694,1.086-1.214,1.086h-8.21c-0.52,0-1.041-0.466-1.214-1.086l-7.574-24.509v23.655
			c0,1.086-0.636,1.939-1.445,1.939h-7.4C89.55,254.354,88.914,253.501,88.914,252.415z"/>
		<path d="M182.804,227.208c0,16.675-8.73,28.387-21.161,28.387s-21.161-11.712-21.161-28.387c0-16.676,8.73-28.387,21.161-28.387
			S182.804,210.533,182.804,227.208z M161.643,242.72c6.36,0,10.869-6.438,10.869-15.512c0-9.075-4.509-15.512-10.869-15.512
			s-10.87,6.438-10.87,15.512C150.773,236.283,155.283,242.72,161.643,242.72z"/>
		<path d="M278.597,212.937h-22.49v5.972h19.889c0.81,0,1.445,0.854,1.445,1.939v8.919c0,1.085-0.636,2.016-1.445,2.016h-19.889
			v20.631c0,1.086-0.636,1.939-1.445,1.939h-7.4c-0.81,0-1.446-0.854-1.446-1.939v-50.414c0-1.085,0.636-1.939,1.446-1.939h31.335
			c0.81,0,1.445,0.854,1.445,1.939v8.92C280.042,212.006,279.406,212.937,278.597,212.937z"/>
		<path d="M286.688,200.062h7.4c0.867,0,1.445,0.776,1.445,1.939v28.542c0,7.136,3.585,12.177,8.673,12.177
			s8.672-5.041,8.672-12.177v-28.542c0-1.163,0.578-1.939,1.445-1.939h7.4c0.867,0,1.445,0.776,1.445,1.939v30.326
			c0,13.651-7.805,23.269-18.963,23.269s-18.964-9.618-18.964-23.269v-30.326C285.242,200.838,285.82,200.062,286.688,200.062z"/>
		<path d="M366.413,212.937h-13.587v39.478c0,1.086-0.636,1.939-1.445,1.939h-7.4c-0.81,0-1.445-0.854-1.445-1.939v-39.478h-13.587
			c-0.81,0-1.445-0.931-1.445-2.016v-8.92c0-1.085,0.636-1.939,1.445-1.939h37.465c0.81,0,1.445,0.854,1.445,1.939v8.92
			C367.858,212.006,367.223,212.937,366.413,212.937z"/>
		<path d="M373.637,200.062h7.4c0.867,0,1.445,0.776,1.445,1.939v28.542c0,7.136,3.585,12.177,8.673,12.177
			s8.672-5.041,8.672-12.177v-28.542c0-1.163,0.578-1.939,1.445-1.939h7.4c0.867,0,1.445,0.776,1.445,1.939v30.326
			c0,13.651-7.805,23.269-18.963,23.269s-18.964-9.618-18.964-23.269v-30.326C372.191,200.838,372.77,200.062,373.637,200.062z"/>
		<path d="M416.476,252.415v-50.414c0-1.085,0.636-1.939,1.445-1.939h18.328c9.828,0,16.767,7.369,16.767,19.313
			c0,8.222-3.238,14.194-8.499,17.141l7.573,14.426c0.926,1.784,0.174,3.413-1.04,3.413h-8.152c-0.982,0-1.503-0.466-2.081-1.551
			l-7.459-14.194h-6.591v13.805c0,1.086-0.636,1.939-1.445,1.939h-7.4C417.111,254.354,416.476,253.501,416.476,252.415z
			 M436.596,225.735c3.643,0,6.128-1.396,6.128-6.36s-2.485-6.438-6.128-6.438h-9.829v12.798H436.596z"/>
		<path d="M498.802,227.208c0,16.675-8.73,28.387-21.161,28.387c-12.43,0-21.16-11.712-21.16-28.387
			c0-16.676,8.73-28.387,21.16-28.387C490.071,198.821,498.802,210.533,498.802,227.208z M477.641,242.72
			c6.36,0,10.87-6.438,10.87-15.512c0-9.075-4.51-15.512-10.87-15.512c-6.359,0-10.869,6.438-10.869,15.512
			C466.771,236.283,471.281,242.72,477.641,242.72z"/>
	</g>
	<g>

	</g>
</g>
</svg>
