<svg width="48" height="48" viewBox="0 0 48 48" fill="none" xmlns="http://www.w3.org/2000/svg">
<rect width="48" height="48" fill="#1E1E1E"/>
<path d="M0 0H48V48H0V0Z" fill="#E82E31"/>
<path d="M10.1491 37V12.2727H19.9048C21.7723 12.2727 23.366 12.6068 24.6861 13.2749C26.0142 13.9349 27.0244 14.8726 27.7166 16.0881C28.4169 17.2955 28.767 18.7161 28.767 20.3501C28.767 21.9922 28.4129 23.4048 27.7045 24.5881C26.9962 25.7633 25.9699 26.6648 24.6257 27.2926C23.2895 27.9205 21.6716 28.2344 19.772 28.2344H13.2401V24.0327H18.9268C19.925 24.0327 20.754 23.8958 21.4141 23.6222C22.0741 23.3485 22.5651 22.938 22.8871 22.3906C23.2171 21.8433 23.3821 21.1631 23.3821 20.3501C23.3821 19.5291 23.2171 18.8369 22.8871 18.2734C22.5651 17.71 22.0701 17.2834 21.402 16.9936C20.742 16.6958 19.9089 16.5469 18.9027 16.5469H15.3771V37H10.1491ZM23.5028 25.7472L29.6484 37H23.8771L17.8643 25.7472H23.5028ZM35.3714 37.3139C34.5746 37.3139 33.8904 37.0322 33.3189 36.4688C32.7554 35.8973 32.4737 35.2131 32.4737 34.4162C32.4737 33.6274 32.7554 32.9512 33.3189 32.3878C33.8904 31.8243 34.5746 31.5426 35.3714 31.5426C36.1442 31.5426 36.8203 31.8243 37.3999 32.3878C37.9794 32.9512 38.2692 33.6274 38.2692 34.4162C38.2692 34.9474 38.1323 35.4344 37.8587 35.8771C37.593 36.3118 37.2429 36.6619 36.8082 36.9276C36.3736 37.1851 35.8946 37.3139 35.3714 37.3139Z" fill="white"/>
</svg>
